<svg xmlns="http://www.w3.org/2000/svg" xmlns:xlink="http://www.w3.org/1999/xlink" id="Livello_1" x="0px" y="0px" viewBox="0 0 252.8 97.3" style="enable-background:new 0 0 252.8 97.3;" xml:space="preserve"><style type="text/css">	.st0{fill-rule:evenodd;clip-rule:evenodd;fill:#FFED00;}</style><g>			<image style="overflow:visible;opacity:0.35;" width="97" height="103" transform="matrix(1 0 0 1 0 -1.7)">	</image>	<g>		<path class="st0" d="M48.5,24.5c-1.3-0.3-2.7-0.6-4.1-0.7c-1.5-0.1-3.1-0.2-4.6-0.1c-1.5,0.1-3.1,0.2-4.6,0.5    c-2.7,0.4-5.3,1.1-7.9,2.1c-1.5,0.6-3,1.2-4.4,2c-1.2-1.2-2.5-2.5-3.7-3.7c1.7-0.9,3.4-1.6,5.2-2.2c3.7-1.2,7.5-1.8,11.4-1.8    c2.4,0,4.9,0.2,7.2,0.9c1.8,0.5,3.5,1.4,5,2.6C48.2,24.2,48.4,24.4,48.5,24.5z M41.4,26c-0.5,0-1,0-1.5,0    c-1.4,0.1-2.9,0.2-4.3,0.4c-1.4,0.2-2.8,0.5-4.2,0.9c-1.1,0.3-2.1,0.7-3.2,1.1c-1.2,0.5-2.3,1-3.5,1.6c0.5,0.5,1.1,1.1,1.6,1.6    c0.5-0.1,1-0.2,1.6-0.3c2.5-0.4,5-0.6,7.6-0.6c0,0,0,0,0.1,0h0.1c0,0,0.1,0,0.1,0c3.6-1.1,7.4-1.6,11.1-1.6c1.6,0,3.1,0.1,4.6,0.3    c-0.2-0.6-0.4-1.1-0.6-1.7c-0.9-0.4-1.8-0.8-2.8-1c-1.2-0.3-2.5-0.5-3.7-0.6C43.3,26,42.3,26,41.4,26L41.4,26z M46.2,31.5    c0.2,0,0.4,0,0.6,0c1.9,0,3.5,0.1,5,0.4c0,0.2,0.1,0.5,0.1,0.7C50,32.1,48.1,31.8,46.2,31.5z M55.7,70.3v6.5h18V35.4    c0-2.5-0.2-5.1-0.6-7.6c-0.4-2.2-0.9-4.4-1.7-6.5c-0.7-1.9-1.6-3.8-2.8-5.5c-1.1-1.6-2.4-3.1-3.9-4.4c-1.5-1.3-3.2-2.5-5-3.5    c-1.9-1-3.9-1.9-6-2.5c-2.3-0.7-4.6-1.2-7-1.5c-2.7-0.4-5.3-0.5-8-0.5c-5.8,0-11.6,0.8-17.3,2.3c-3.4,0.9-6.7,2.2-9.8,3.8    c2,4.4,4.1,8.8,6.1,13.2c1.9-1,3.9-1.8,5.9-2.5c3.9-1.3,8-1.9,12.1-1.9c2.7,0,5.3,0.2,7.9,1c2.1,0.6,4.2,1.6,5.8,3.1    c1.5,1.4,2.8,3.2,3.5,5.1c0.8,2.1,1.2,4.4,1.2,6.7v0.1c0,0.7-0.7,1.3-1.4,1.1c0,0,0,0-0.1,0c-5.6-1.6-11.5-2.2-17.3-2.2    c-2.4,0-4.8,0.2-7.2,0.6c-2.4,0.4-4.7,0.9-7,1.8c-2.2,0.8-4.2,1.8-6.1,3.1c-1.9,1.3-3.6,2.8-5.1,4.5c-1.4,1.6-2.5,3.5-3.4,5.4    c-0.9,2-1.4,4.1-1.6,6.2c-0.2,2.1-0.1,4.1,0.3,6.2c0.4,2,1.2,3.9,2.2,5.7c1.1,1.9,2.6,3.5,4.2,5c1.6,1.4,3.4,2.6,5.3,3.5    c1.9,0.9,3.9,1.6,6,2.1c2.1,0.4,4.2,0.6,6.3,0.7c1.8,0.1,3.7,0.1,5.5-0.1c2-0.2,4-0.5,5.9-1c2.2-0.6,4.3-1.5,6.3-2.5    c2.4-1.3,4.7-2.8,6.8-4.5c0,0,0.1-0.1,0.1-0.1C54.6,68.9,55.7,69.4,55.7,70.3z M73.6,20.5c0.8,2.2,1.4,4.5,1.8,6.8    c0.4,2.6,0.6,5.3,0.6,8v42.2c1,1,2.1,2.1,3.1,3.1V40.8C79.1,32.3,77.3,25.6,73.6,20.5z M77.5,82.3l-3.1-3.1h-17l3.1,3.1H77.5z     M53.7,78.8c-0.1,0.1-0.2,0.1-0.3,0.2c-2.1,1.2-4.3,2.1-6.5,2.8c-2.4,0.7-4.9,1.2-7.4,1.3c-1.2,0.1-2.3,0.1-3.5,0.1    c-0.9,0-1.8-0.1-2.8-0.1c-1.6-0.1-3.1-0.3-4.7-0.6c-1.5-0.3-3-0.8-4.5-1.4c-1.1-0.5-2.2-1-3.2-1.6c-0.6-0.4-1.2-0.8-1.8-1.2    c1.2,0.4,2.3,0.7,3.5,1c2.2,0.5,4.4,0.7,6.7,0.8c1.8,0.1,3.6,0.1,5.4-0.1c2-0.1,3.9-0.5,5.8-0.9c2.2-0.5,4.3-1.3,6.3-2.2    c2.4-1.1,4.6-2.5,6.7-4V78C53.4,78.4,53.5,78.6,53.7,78.8C53.7,78.8,53.7,78.8,53.7,78.8z M79.1,26c3.6,5,5.5,11.7,5.5,20.3v39.9    c-1-1-2.1-2.1-3.1-3.1V40.8C81.4,35.2,80.6,30.3,79.1,26z M82.9,87.8l-3.1-3.1h-17l3.1,3.1H82.9z M59.1,84.3    c-2.2,1.3-4.5,2.3-6.9,3c-2.4,0.7-4.9,1.2-7.4,1.3c-1.2,0.1-2.3,0.1-3.5,0.1c-0.9,0-1.8-0.1-2.8-0.1c-1.6-0.1-3.1-0.3-4.7-0.6    c-1.5-0.3-3-0.8-4.5-1.4c-1.1-0.5-2.2-1-3.2-1.6c-0.6-0.4-1.2-0.8-1.8-1.2c1.1,0.4,2.3,0.7,3.5,1c1.6,0.3,3.3,0.6,5,0.7    c1,0.1,1.9,0.1,2.9,0.1c1.2,0,2.4,0,3.7-0.1c2.7-0.2,5.4-0.6,8-1.4c2.8-0.8,5.4-2,7.9-3.5C56.6,81.8,57.9,83,59.1,84.3z     M85.8,90.1H65.4c-0.3,0-0.6-0.1-0.8-0.3c-1.3-1.3-2.5-2.5-3.8-3.8c-2.5,1.5-5.2,2.7-7.9,3.5c-2.6,0.8-5.3,1.2-8,1.4    C43.7,91,42.5,91,41.3,91c-1,0-1.9-0.1-2.9-0.1c-1.7-0.1-3.3-0.3-5-0.7c-1.7-0.4-3.3-0.9-4.9-1.5c-1.2-0.5-2.4-1.1-3.5-1.8    c-1.9-1.1-3.7-2.5-5.3-4.1c-3.6-3.6-7.3-7.3-10.9-10.9c-1.3-1.3-2.4-2.7-3.3-4.2c-1.2-2-2-4.1-2.4-6.4c-0.5-2.3-0.6-4.6-0.4-6.9    C3,52,3.6,49.7,4.6,47.5c0.9-2.2,2.2-4.2,3.7-6c1.6-1.9,3.5-3.5,5.6-4.9c2.1-1.4,4.3-2.5,6.6-3.3c1-0.4,2.1-0.7,3.2-1    c-2.4-2.4-4.8-4.8-7.1-7.1c-0.1-0.1-0.2-0.2-0.2-0.3c-2.4-5.1-4.8-10.3-7.2-15.4c-0.2-0.5,0-1.2,0.5-1.4c0,0,0,0,0,0    c3.5-2,7.4-3.4,11.3-4.5C26.8,1.8,32.8,1,38.8,1c2.8,0,5.6,0.2,8.3,0.5c2.5,0.3,5,0.8,7.4,1.6c2.2,0.7,4.3,1.6,6.4,2.7    c1.9,1.1,3.7,2.3,5.4,3.8c0.4,0.3,0.8,0.7,1.1,1.1c3.6,3.6,7.3,7.3,10.9,10.9c5.8,5.8,8.6,14.1,8.6,24.8V89    C86.9,89.6,86.4,90.1,85.8,90.1z"></path>	</g></g><g>			<image style="overflow:visible;opacity:0.35;" width="44" height="34" transform="matrix(1 0 0 1 21 42.3)">	</image>	<g>		<path class="st0" d="M29.2,61.4c0-0.4,0-0.7,0-1.1c0-0.6,0.1-1.2,0.3-1.7c0.2-0.7,0.5-1.4,0.9-2c0.8-1.3,1.9-2.3,3.2-3.2    c1.3-0.9,2.6-1.5,4.1-2c1.5-0.5,3-0.8,4.6-1c1.8-0.3,3.6-0.4,5.5-0.4c1.4,0,2.9,0,4.3,0.2c0-0.8,0-1.6-0.1-2.4    c-1.9-0.4-3.8-0.6-5.7-0.7c-2-0.2-4.1-0.2-6.1-0.1c-1,0.1-2.1,0.1-3.1,0.3c-0.9,0.1-1.8,0.3-2.6,0.5c-1.5,0.4-3.1,0.9-4.4,1.8    c-0.6,0.4-1.2,0.8-1.8,1.3c-0.5,0.5-1,1-1.4,1.6c-0.4,0.6-0.6,1.2-0.8,1.8c-0.2,0.7-0.2,1.4-0.1,2c0.1,0.7,0.2,1.4,0.5,2    c0.1,0.3,0.3,0.7,0.5,1c0.2,0.3,0.4,0.6,0.7,0.9C28.2,60.6,28.7,61,29.2,61.4z M35.2,63.4c0.4-1,1-2,1.8-2.8    c0.8-0.9,1.8-1.6,2.8-2.2c2.1-1.2,4.4-2,6.8-2.4c1.4-0.3,2.9-0.4,4.4-0.5c0.2-0.4,0.3-0.9,0.4-1.3c0.2-0.6,0.3-1.2,0.4-1.7    c-1.4-0.1-2.7-0.2-4.1-0.2c-1.7,0-3.4,0.1-5.1,0.3c-1.4,0.2-2.8,0.5-4.1,0.9c-1.2,0.4-2.4,1-3.5,1.7c-1,0.7-1.9,1.5-2.5,2.5    c-0.5,0.8-0.8,1.8-0.9,2.7c-0.1,0.7,0,1.4,0.2,2.1c0.4,0.2,0.8,0.3,1.3,0.4C33.7,63.2,34.5,63.3,35.2,63.4z M49.7,57.9    c-0.9,0.1-1.8,0.2-2.6,0.3c-1.1,0.2-2.1,0.4-3.1,0.8c-1,0.3-2,0.8-2.9,1.3c-0.8,0.5-1.6,1.1-2.3,1.8c-0.4,0.4-0.7,0.8-0.9,1.2    c1.3-0.1,2.6-0.2,3.9-0.5c1.4-0.3,2.7-0.8,4-1.5c1.2-0.7,2.3-1.5,3.2-2.5C49.1,58.6,49.4,58.3,49.7,57.9z M53.3,45.7    C53.3,45.7,53.3,45.6,53.3,45.7c-1.9-0.4-3.7-0.7-5.5-0.9c-1.8-0.2-3.7-0.3-5.5-0.3c-1.8,0-3.7,0.1-5.5,0.4    c-1.5,0.2-3.1,0.5-4.6,1c-1.4,0.5-2.8,1.1-4.1,2c-1.2,0.9-2.4,1.9-3.2,3.2c-0.4,0.7-0.7,1.4-1,2.1c-0.2,0.7-0.3,1.5-0.3,2.3    c0,1.6,0.4,3.1,1.1,4.5c0.8,1.4,1.9,2.5,3.2,3.4c1.3,0.9,2.8,1.5,4.4,1.9c1.6,0.4,3.3,0.5,5,0.5c1.6,0,3.2-0.2,4.8-0.6    c1.6-0.4,3.1-0.9,4.5-1.7c1.4-0.8,2.7-1.8,3.8-3c0.6-0.7,1.2-1.4,1.6-2.2c0.7-1.2,1.2-2.4,1.5-3.7c0.7-2.6,0.8-5.3,0.4-7.9    C54.1,46,53.9,45.8,53.3,45.7z"></path>	</g></g><g>			<image style="overflow:visible;opacity:0.35;" width="44" height="44" transform="matrix(1 0 0 1 128 57.3)">	</image>	<g>		<path class="st0" d="M153.3,86.3V90h8.4V59.3h-8.9v15.2c0,2.7-0.6,4.8-1.9,6.2c-1.3,1.4-3,2.1-5.1,2.1c-4.1,0-6.2-2.5-6.2-7.4v-16    h-8.9v17.3c0,4.6,1.2,8,3.5,10.3c2.4,2.3,5.5,3.5,9.6,3.5c1.9,0,3.7-0.4,5.3-1.1C150.7,88.7,152.1,87.7,153.3,86.3z"></path>	</g></g><g>			<image style="overflow:visible;opacity:0.35;" width="42" height="45" transform="matrix(1 0 0 1 96 56.3)">	</image>	<g>		<path class="st0" d="M118.7,77.2c-1.2-0.2-2.3-0.4-3.5-0.4c-1.2,0-2.3,0-3.5,0.2c-0.9,0.2-1.8,0.4-2.6,0.9    c-0.8,0.5-1.4,1.1-1.7,1.9c-0.3,0.8-0.2,1.8,0.2,2.6c0.4,0.8,1.2,1.4,2.1,1.7c1,0.4,2,0.5,3.1,0.4c1-0.1,2-0.3,2.9-0.7    c0.9-0.4,1.7-1.1,2.2-1.9C118.7,80.6,118.9,78.8,118.7,77.2z M127.6,72.5c0-4.6-1.3-8-3.8-10.2c-2.5-2.3-6.2-3.4-10.9-3.4    c-2.5,0-4.9,0.3-7.2,1c-1.7,0.5-3.2,1.1-4.5,1.8c1,2.1,2,4.2,2.9,6.3c0.8-0.5,1.8-0.9,2.8-1.2c1.6-0.5,3.2-0.8,4.8-0.8    c2.4,0,4.1,0.5,5.3,1.6c1.2,1,1.8,2.5,1.8,4.5c-2.3-0.7-4.8-0.9-7.2-0.9c-2,0-4.1,0.3-6,1c-1.8,0.7-3.6,1.8-4.8,3.2    c-1.2,1.4-2,3.2-2.2,5c-0.2,1.8,0.2,3.6,1.1,5.2c1,1.6,2.6,2.9,4.1,3.7c1.7,0.9,3.4,1.1,5.2,1.2c3,0.1,6.4-0.3,10.4-3.5V90h8.3    V72.5z"></path>	</g></g><g>			<image style="overflow:visible;opacity:0.35;" width="22" height="57" transform="matrix(1 0 0 1 163 43.3)">	</image>	<g>		<rect x="165.2" y="46" class="st0" width="8.9" height="44"></rect>	</g></g><g>			<image style="overflow:visible;opacity:0.35;" width="46" height="58" transform="matrix(1 0 0 1 207 43.3)">	</image>	<g>		<path class="st0" d="M225.6,83.2c2.3,0,4.2-0.8,5.6-2.3c1.5-1.5,2.2-3.6,2.2-6.2c0-2.6-0.7-4.6-2.2-6.2c-1.5-1.5-3.3-2.3-5.6-2.3    c-2.3,0-4.1,0.8-5.6,2.3c-1.5,1.5-2.2,3.6-2.2,6.2c0,2.6,0.7,4.6,2.2,6.2C221.5,82.4,223.4,83.2,225.6,83.2z M217.9,46v16.5    c2.2-2.5,5.3-3.7,9.2-3.7c2.8,0,5.4,0.7,7.8,2c2.3,1.3,4.2,3.2,5.5,5.5c1.3,2.4,2,5.1,2,8.3c0,3.2-0.7,5.9-2,8.3    c-1.3,2.4-3.2,4.2-5.5,5.5c-2.3,1.3-4.9,2-7.8,2c-4.2,0-7.4-1.3-9.6-4V90H209V46H217.9z"></path>	</g></g><g>			<image style="overflow:visible;opacity:0.35;" width="42" height="45" transform="matrix(1 0 0 1 174 56.3)">	</image>	<g>		<path class="st0" d="M196.9,77.2c-1.2-0.2-2.3-0.4-3.5-0.4c-1.2,0-2.3,0-3.5,0.2c-0.9,0.2-1.8,0.4-2.6,0.9    c-0.8,0.5-1.4,1.1-1.7,1.9c-0.3,0.8-0.2,1.8,0.2,2.6c0.4,0.8,1.2,1.4,2.1,1.7c1,0.4,2,0.5,3.1,0.4c1-0.1,2-0.3,2.9-0.7    c0.9-0.4,1.7-1.1,2.2-1.9C196.9,80.6,197.1,78.8,196.9,77.2z M205.8,72.5c0-4.6-1.3-8-3.8-10.2c-2.5-2.3-6.2-3.4-10.9-3.4    c-2.5,0-4.9,0.3-7.2,1c-1.7,0.5-3.2,1.1-4.5,1.8c1,2.1,2,4.2,2.9,6.3c0.8-0.5,1.8-0.9,2.8-1.2c1.6-0.5,3.2-0.8,4.8-0.8    c2.4,0,4.1,0.5,5.3,1.6c1.2,1,1.8,2.5,1.8,4.5c-2.3-0.7-4.8-0.9-7.2-0.9c-2,0-4.1,0.3-6,1c-1.8,0.7-3.6,1.8-4.8,3.2    c-1.2,1.4-2,3.2-2.2,5c-0.2,1.8,0.2,3.6,1.1,5.2c1,1.6,2.6,2.9,4.1,3.7c1.7,0.9,3.4,1.1,5.2,1.2c3,0.1,6.4-0.3,10.4-3.5V90h8.3    V72.5z"></path>	</g></g></svg>