<svg xmlns="http://www.w3.org/2000/svg" xmlns:xlink="http://www.w3.org/1999/xlink" id="Livello_1" x="0px" y="0px" viewBox="0 0 536 311" style="enable-background:new 0 0 536 311;" xml:space="preserve"><style type="text/css">	.st0{fill:#D6D6D6;}	.st1{fill:#375A64;}	.st2{fill:#1A2E35;}	.st3{fill:#1D1D1B;}	.st4{opacity:0.7;}	.st5{fill:#D5D9DA;}	.st6{fill:#50B5F9;}	.st7{fill:#E3767A;}	.st8{fill:#FDED29;}	.st9{fill:#79EBCB;}	.st10{fill:#FFFFFF;}	.st11{fill:#FFED00;}	.st12{opacity:0.3;}	.st13{fill:#FFBF9D;}	.st14{fill:#FF9A6C;}	.st15{fill:#455A64;}	.st16{opacity:0.3;enable-background:new    ;}	.st17{fill:#FAFAFA;}</style><path id="Rettangolo_958" class="st0" d="M25,0h486c13.8,0,25,11.2,25,25v261c0,13.8-11.2,25-25,25H25c-13.8,0-25-11.2-25-25V25  C0,11.2,11.2,0,25,0z"></path><g>	<g>		<g>			<g>				<path class="st1" d="M481.9,273c0,0-19.9-22.9-27.4-45.9c-7.5-22.9-4-20.3-4-20.3s10.1,22.2,17.9,33      c7.7,10.8,21.4,26.5,21.4,26.5L481.9,273z"></path>			</g>			<g>				<path class="st1" d="M485.9,210.5c-0.7-1.2-2.4-0.6-2.1,0.7c1.2,8.1,3.9,26.9,3.7,39.2c-0.2,15.9,0,22.1,0,22.1h8.3      c0,0-1.5-32.9-3.4-42.9C491.1,222.5,488.3,214.7,485.9,210.5z"></path>			</g>			<g>				<path class="st1" d="M490.4,269.8c0,0,5.2-11,6.8-24.8c0.7-5.8-0.5-13.8-2.3-24.4c-0.9-5.1-1.1-9-1.1-11.7      c0-2.1,2.7-2.7,3.7-0.9c1,1.8,3.9,7.9,4.6,11.7c2,10.5,4.3,15.6,2.6,25.5c-1.7,9.9-8.2,25.1-8.2,25.1L490.4,269.8z"></path>			</g>			<g>				<path class="st1" d="M497.8,270.4c0,0,21.9-47,23.4-53.9c1.5-7,6.7-23.1,7.2-22.2c0.6,0.9,1.5,9.4-2.4,19.1      c-4,9.7-20.8,58.4-20.8,58.4h-7.5"></path>			</g>			<g>				<g>					<path class="st2" d="M488,268.4c0,0-0.2-0.2-0.6-0.4c-0.4-0.3-1-0.7-1.7-1.3c-1.5-1.2-3.5-2.9-5.8-5.2       c-4.8-4.6-10.7-11.6-15.9-20.3s-8.6-17.2-10.8-23.5c-1.1-3.1-1.9-5.7-2.4-7.4c-0.2-0.9-0.4-1.6-0.6-2.1       c-0.2-0.5-0.2-0.7-0.2-0.7s0.1,0.2,0.2,0.7c0.2,0.5,0.4,1.2,0.7,2.1c0.6,1.7,1.4,4.3,2.6,7.4c2.3,6.2,5.8,14.7,11,23.3       c5.1,8.6,11,15.7,15.7,20.3c2.3,2.3,4.4,4.1,5.8,5.3c0.7,0.6,1.2,1.1,1.6,1.4C487.8,268.2,488,268.4,488,268.4z"></path>				</g>			</g>			<g>				<g>					<path class="st2" d="M490.4,245.8c0,0-0.1-0.5-0.2-1.4c-0.1-1-0.2-2.2-0.4-3.8c-0.3-3.2-0.9-7.6-1.6-12.4       c-0.7-4.8-1.6-9.1-2.3-12.3c-0.3-1.5-0.6-2.7-0.8-3.7c-0.2-0.9-0.2-1.4-0.2-1.4s0.2,0.5,0.4,1.3s0.6,2.1,0.9,3.7       c0.7,3.1,1.6,7.4,2.5,12.3c0.7,4.9,1.2,9.2,1.6,12.4c0.2,1.6,0.2,2.9,0.2,3.8C490.4,245.3,490.4,245.8,490.4,245.8z"></path>				</g>			</g>			<g>				<g>					<path class="st2" d="M495.5,207.7c0,0,0.1,0.2,0.2,0.6s0.4,1,0.7,1.7c0.3,0.7,0.7,1.7,0.9,2.8c0.3,1.1,0.7,2.4,1.1,3.8       c0.2,0.7,0.3,1.5,0.6,2.2c0.2,0.7,0.3,1.6,0.5,2.4c0.3,1.6,0.6,3.5,0.8,5.4c0.4,3.8,0.7,8,0.5,12.4s-0.7,8.6-1.4,12.4       c-0.4,1.9-0.7,3.6-1.2,5.3c-0.2,0.8-0.4,1.6-0.7,2.4s-0.5,1.5-0.7,2.1c-0.4,1.4-0.9,2.6-1.3,3.7s-0.8,2-1.2,2.7       s-0.6,1.2-0.7,1.7c-0.2,0.4-0.2,0.6-0.3,0.6c0,0,0.1-0.2,0.2-0.6c0.2-0.4,0.4-1,0.7-1.7c0.3-0.7,0.7-1.6,1.1-2.7       s0.8-2.3,1.2-3.7c0.2-0.7,0.4-1.4,0.7-2.1s0.4-1.6,0.7-2.4c0.5-1.6,0.8-3.5,1.2-5.3c0.7-3.8,1.2-7.9,1.4-12.4       c0.2-4.4-0.1-8.6-0.5-12.4c-0.2-1.9-0.5-3.7-0.8-5.4c-0.2-0.8-0.2-1.6-0.4-2.4c-0.2-0.7-0.3-1.5-0.5-2.2       c-0.3-1.4-0.7-2.6-1-3.8c-0.3-1.1-0.6-2.1-0.8-2.8s-0.4-1.3-0.6-1.8C495.5,207.9,495.5,207.7,495.5,207.7z"></path>				</g>			</g>			<g>				<g>					<path class="st2" d="M528.2,195.3c0,0,0,0.1,0,0.2s-0.1,0.3-0.1,0.6c-0.1,0.5-0.2,1.3-0.4,2.3c-0.4,2.1-1.2,4.9-2.2,8.5       c-1.1,3.5-2.6,7.7-4.4,12.2c-1.7,4.5-3.8,9.5-5.8,14.7s-3.5,10.4-4.9,15.1c-1.4,4.7-2.7,8.9-4,12.4c-1.3,3.5-2.6,6.2-3.5,8.1       c-0.4,0.9-0.8,1.6-1.1,2.1c-0.1,0.2-0.2,0.4-0.3,0.6c-0.1,0.1-0.1,0.2-0.1,0.2s0-0.1,0.1-0.2c0.1-0.2,0.2-0.3,0.2-0.6       c0.2-0.5,0.6-1.2,1.1-2.1c0.9-1.9,2.1-4.6,3.3-8.1c1.2-3.5,2.6-7.7,4-12.4c1.4-4.7,2.9-9.8,4.9-15.1c2-5.3,4-10.2,5.8-14.7       c1.8-4.5,3.3-8.6,4.4-12.2c1.2-3.5,1.9-6.4,2.4-8.4c0.2-1,0.4-1.8,0.5-2.3c0.1-0.2,0.1-0.4,0.2-0.6       C528.2,195.4,528.2,195.3,528.2,195.3z"></path>				</g>			</g>			<g>				<g>					<path class="st1" d="M460.9,184.9c-1.4-1.4-3.7,0.1-3.1,1.9c0.6,1.9,1.5,4.3,2.7,7.1c3,6.4,11.9,29.3,16,41.9       c4.1,12.6,10,36.1,10,36.1l8.8-1.4c0,0-8.1-38.6-16-52.5C473,206.7,466.6,190.6,460.9,184.9z"></path>				</g>				<g>					<g>						<path class="st2" d="M478.9,243.6c0,0,0.2,0.3,0.5,1.1c0.2,0.7,0.6,1.7,1,3c0.8,2.6,1.8,6,2.8,10c1,3.9,1.8,7.5,2.4,10        c0.2,1.2,0.5,2.2,0.7,3c0.2,0.7,0.2,1.2,0.2,1.2c0,0-0.2-0.4-0.3-1.1c-0.2-0.8-0.5-1.8-0.8-3c-0.7-2.6-1.6-6.2-2.6-10        c-1-3.9-2-7.4-2.6-10c-0.3-1.2-0.7-2.2-0.9-3C479,244.1,478.8,243.7,478.9,243.6z"></path>					</g>				</g>				<g>					<g>						<path class="st2" d="M490.8,271.2c0,0,0-0.1-0.1-0.2c0-0.2-0.1-0.4-0.1-0.7c-0.1-0.6-0.2-1.5-0.3-2.6        c-0.3-2.3-0.9-5.7-1.8-9.7c-0.9-4.1-2.3-8.9-4.1-14.1s-4.1-10.9-6.7-16.7c-5.2-11.7-10.4-22.1-13.8-29.7c-1.7-3.8-3-6.9-4-9.1        c-0.4-1.1-0.7-2-1-2.5c-0.1-0.2-0.2-0.5-0.2-0.7c-0.1-0.2-0.1-0.2-0.1-0.2s0.1,0.1,0.1,0.2c0.1,0.2,0.2,0.4,0.2,0.7        c0.2,0.6,0.7,1.4,1.1,2.5c0.9,2.1,2.3,5.3,4,9.1c3.5,7.7,8.7,18,13.9,29.6c2.6,5.8,4.9,11.5,6.7,16.8c1.8,5.3,3.1,10,4,14.2        c0.9,4.1,1.4,7.5,1.7,9.8c0.2,1.2,0.2,2.1,0.2,2.7C490.8,270.7,490.8,270.9,490.8,271.2C490.8,271.1,490.8,271.2,490.8,271.2z        "></path>					</g>				</g>				<g>					<g>						<path class="st2" d="M495.2,270.4c0,0-0.2-0.5-0.3-1.5c-0.2-1.1-0.4-2.4-0.7-4c-0.6-3.5-1.6-8.2-2.9-13.3        c-1.3-5.1-2.8-9.7-4-13c-0.6-1.6-1-2.9-1.4-3.9c-0.3-0.9-0.5-1.4-0.5-1.4s0.2,0.5,0.7,1.4c0.4,0.9,0.9,2.2,1.5,3.9        c1.2,3.3,2.8,7.8,4.1,12.9c1.3,5.1,2.2,9.9,2.7,13.3c0.2,1.7,0.4,3.1,0.6,4.1C495.2,269.9,495.3,270.4,495.2,270.4z"></path>					</g>				</g>			</g>		</g>		<g>			<g>				<rect x="478.9" y="269.2" width="34.4" height="42"></rect>			</g>			<g>				<rect x="471.8" y="269.2" class="st3" width="30.6" height="42"></rect>			</g>		</g>	</g>	<g>		<g>			<path class="st1" d="M55.4,254.6c-5.8-3.8-14-3.9-19.7,0.2c-5.4,3.8-8.2,10.7-7.9,17.3s3.5,14.7,9.5,18.2l17.6-0.1     c5.6-4.1,9.4-10.8,9.6-17.7C64.7,265.5,61.3,258.4,55.4,254.6z"></path>			<g>				<g>					<path class="st2" d="M46.8,290.8c0,0-0.1-0.6-0.1-1.5c0-1.1-0.1-2.5-0.1-4.1c-0.1-3.5-0.2-8.3-0.5-13.6       c-0.2-5.3-0.5-10.1-0.7-13.6c-0.1-1.6-0.2-3-0.2-4.1c-0.1-1-0.1-1.5,0-1.5c0,0,0.1,0.5,0.2,1.5c0.1,1,0.2,2.4,0.4,4.1       c0.3,3.5,0.7,8.2,0.9,13.6c0.2,5.4,0.3,10.1,0.3,13.6c0,1.7,0,3.1-0.1,4.1S46.8,290.8,46.8,290.8z"></path>				</g>			</g>			<g>				<g>					<path class="st2" d="M29.6,270.6c0,0.2-1,0.2-2.1,0.1c-1.2-0.1-2.1-0.3-2.1-0.5c0-0.2,1-0.2,2.1-0.1       C28.6,270.2,29.6,270.4,29.6,270.6z"></path>				</g>			</g>			<g>				<g>					<path class="st2" d="M29.9,264.6c-0.1,0.2-0.9-0.1-1.8-0.5c-1-0.4-1.6-0.9-1.6-1c0.1-0.2,0.9,0.1,1.8,0.5       C29.2,264,30,264.5,29.9,264.6z"></path>				</g>			</g>			<g>				<g>					<path class="st2" d="M32.9,260.2c-0.1,0.2-1-0.3-2-1.1c-1-0.8-1.6-1.6-1.5-1.7c0.1-0.1,0.9,0.5,1.8,1.3       C32.3,259.5,33,260.1,32.9,260.2z"></path>				</g>			</g>			<g>				<g>					<path class="st2" d="M36,256.1c-0.2,0.1-0.6-0.7-1-1.6c-0.4-0.9-0.7-1.7-0.5-1.8c0.2-0.1,0.6,0.7,1,1.6       C36,255.2,36.1,256,36,256.1z"></path>				</g>			</g>			<g>				<g>					<path class="st2" d="M40.8,253.1c-0.2,0.1-0.6-0.7-0.9-1.7c-0.3-1-0.3-1.9-0.2-1.9s0.4,0.7,0.7,1.7       C40.8,252.2,41,253,40.8,253.1z"></path>				</g>			</g>			<g>				<g>					<path class="st2" d="M48.8,249.8c0.2,0.1,0.1,0.7-0.2,1.4c-0.2,0.7-0.6,1.2-0.7,1.2c-0.2-0.1-0.1-0.7,0.2-1.4       C48.4,250.3,48.7,249.7,48.8,249.8z"></path>				</g>			</g>			<g>				<g>					<path class="st2" d="M54.8,252.4c0.1,0.1-0.2,0.7-0.8,1.2c-0.6,0.5-1.2,0.9-1.2,0.7c-0.1-0.1,0.2-0.7,0.8-1.2       C54.2,252.5,54.8,252.2,54.8,252.4z"></path>				</g>			</g>			<g>				<g>					<path class="st2" d="M60.1,255.8c0.1,0.2-0.4,0.6-1.1,1.1c-0.7,0.4-1.2,0.7-1.3,0.6c-0.1-0.2,0.4-0.6,1.1-1.1       C59.4,255.8,60,255.6,60.1,255.8z"></path>				</g>			</g>			<g>				<g>					<path class="st2" d="M63.8,260.8c0.1,0.2-0.7,0.6-1.6,1s-1.8,0.7-1.9,0.5c-0.1-0.2,0.7-0.6,1.6-1S63.7,260.6,63.8,260.8z"></path>				</g>			</g>			<g>				<g>					<path class="st2" d="M65.3,266.3c0,0.2-0.7,0.4-1.6,0.5c-0.9,0.1-1.7,0.1-1.7-0.1s0.7-0.4,1.6-0.5       C64.5,266.1,65.2,266.1,65.3,266.3z"></path>				</g>			</g>			<g>				<g>					<path class="st2" d="M66,273.1c-0.1,0.2-0.8-0.1-1.8-0.5c-0.9-0.4-1.6-0.8-1.6-1c0.1-0.2,0.8,0.1,1.8,0.5       C65.4,272.5,66.1,273,66,273.1z"></path>				</g>			</g>			<g>				<g>					<path class="st2" d="M65.4,278.9c-0.1,0.2-1.1-0.1-2.1-0.8c-1.1-0.7-1.6-1.5-1.6-1.6c0.1-0.1,0.9,0.5,1.9,1.2       C64.6,278.3,65.4,278.7,65.4,278.9z"></path>				</g>			</g>			<g>				<g>					<path class="st2" d="M62.3,284.3c-0.1,0.1-0.9-0.3-1.6-1.2c-0.7-0.8-1.2-1.6-1.1-1.7c0.2-0.1,0.7,0.6,1.5,1.4       C61.8,283.4,62.4,284.1,62.3,284.3z"></path>				</g>			</g>			<g>				<g>					<path class="st2" d="M33.5,284.8c0.1,0.2-0.7,0.7-1.9,1.3c-1.1,0.6-2.1,0.9-2.1,0.8c-0.1-0.2,0.7-0.7,1.9-1.3       C32.5,285.1,33.5,284.7,33.5,284.8z"></path>				</g>			</g>			<g>				<g>					<path class="st2" d="M31,280c0.1,0.2-0.6,0.6-1.5,1s-1.6,0.7-1.7,0.5c-0.1-0.2,0.6-0.6,1.5-1C30,280.1,30.9,279.9,31,280z"></path>				</g>			</g>			<g>				<g>					<path class="st2" d="M29,275.8c0,0.2-0.8,0.4-1.9,0.6c-1.1,0.2-1.9,0.2-1.9,0c0-0.2,0.8-0.4,1.9-0.6       C28.1,275.6,29,275.6,29,275.8z"></path>				</g>			</g>			<g>				<g>					<path class="st2" d="M35.3,273.5c0.1,0.2-0.7,0.5-1.8,0.7c-1.1,0.2-2-0.1-2-0.2c0-0.2,0.8-0.2,1.9-0.3       C34.4,273.5,35.3,273.3,35.3,273.5z"></path>				</g>			</g>			<g>				<g>					<path class="st2" d="M40.6,268.2c0.1,0.2-0.6,0.5-1.5,0.6c-0.9,0.1-1.6-0.1-1.6-0.2c0-0.2,0.7-0.2,1.5-0.3       C39.8,268.1,40.5,268,40.6,268.2z"></path>				</g>			</g>			<g>				<g>					<path class="st2" d="M41.6,264c-0.1,0.2-0.7,0-1.6-0.2c-0.8-0.2-1.4-0.7-1.4-0.7c0.1-0.2,0.7,0,1.6,0.2S41.7,263.9,41.6,264z"></path>				</g>			</g>			<g>				<g>					<path class="st2" d="M43.6,259.8c-0.1,0.1-0.6-0.2-0.9-0.8s-0.4-1.2-0.2-1.2s0.4,0.4,0.7,0.9C43.4,259.2,43.6,259.6,43.6,259.8       z"></path>				</g>			</g>			<g>				<g>					<path class="st2" d="M41.2,277.2c0,0.2-0.6,0.4-1.3,0.7c-0.4,0.1-0.8,0.2-1.2,0.2l-0.1-0.3c0.2,0,0.3,0,0.3,0       c0,0.1-0.1,0.2-0.2,0.2l-0.1-0.3c0.2-0.2,0.7-0.2,1.1-0.4C40.5,277,41.2,277,41.2,277.2z"></path>				</g>			</g>			<g>				<g>					<path class="st2" d="M42.3,284.6c0.1,0.2-0.7,0.6-1.7,1s-1.9,0.6-1.9,0.5c-0.1-0.2,0.7-0.6,1.7-1       C41.3,284.7,42.2,284.4,42.3,284.6z"></path>				</g>			</g>			<g>				<g>					<path class="st2" d="M36.3,281.3c0.1,0.2-0.5,0.5-1.2,0.7c-0.7,0.2-1.3,0.3-1.3,0.2c-0.1-0.2,0.5-0.5,1.2-0.7       C35.7,281.2,36.3,281.1,36.3,281.3z"></path>				</g>			</g>			<g>				<g>					<path class="st2" d="M36.8,266.1c0,0.2-0.9,0.1-2-0.3c-1.1-0.3-1.8-0.8-1.7-1c0.1-0.2,0.9,0.1,1.9,0.5       C36,265.6,36.8,266,36.8,266.1z"></path>				</g>			</g>			<g>				<g>					<path class="st2" d="M51.2,264.5c0.1,0.2-0.4,0.6-1.2,1.1c-0.7,0.5-1.3,0.7-1.4,0.6c-0.1-0.2,0.4-0.6,1.2-1.1       C50.5,264.6,51.1,264.4,51.2,264.5z"></path>				</g>			</g>			<g>				<g>					<path class="st2" d="M52,272c0,0.2-0.5,0.4-1.2,0.5c-0.7,0.2-1.2,0.2-1.3,0c0-0.2,0.5-0.4,1.2-0.5C51.4,271.8,52,271.8,52,272z       "></path>				</g>			</g>			<g>				<g>					<path class="st2" d="M52.9,280.4c-0.1,0.2-0.8-0.1-1.7-0.5c-0.9-0.4-1.6-0.8-1.5-1c0.1-0.2,0.8,0.1,1.7,0.5       C52.3,279.8,52.9,280.2,52.9,280.4z"></path>				</g>			</g>			<g>				<g>					<path class="st2" d="M51,288.5c-0.1,0.1-0.6-0.3-1.1-0.9c-0.5-0.6-0.8-1.2-0.7-1.2c0.1-0.1,0.6,0.3,1.1,0.9       C50.8,287.9,51,288.5,51,288.5z"></path>				</g>			</g>			<g>				<g>					<path class="st2" d="M50.6,259c0.1,0.1-0.2,0.5-0.8,0.8c-0.6,0.2-1.1,0.3-1.2,0.2s0.3-0.4,0.9-0.7       C50.1,259,50.5,258.9,50.6,259z"></path>				</g>			</g>			<g>				<g>					<path class="st2" d="M57.6,266.5c0.1,0.2-0.6,0.5-1.5,0.7c-0.9,0.2-1.6-0.1-1.6-0.2c0-0.2,0.7-0.2,1.6-0.3       C56.9,266.5,57.6,266.4,57.6,266.5z"></path>				</g>			</g>			<g>				<g>					<path class="st2" d="M56.2,259.8c0.1,0.2-0.6,0.6-1.5,0.9c-0.9,0.3-1.7,0.3-1.7,0.2c0-0.2,0.7-0.4,1.6-0.7       C55.4,259.9,56.2,259.6,56.2,259.8z"></path>				</g>			</g>			<g>				<g>					<path class="st2" d="M59.1,277c0,0.2-1.1,0.2-2.5,0c-1.3-0.2-2.3-0.7-2.3-0.8c0.1-0.2,1.1,0.1,2.4,0.3       C58.1,276.7,59.1,276.8,59.1,277z"></path>				</g>			</g>			<g>				<g>					<path class="st2" d="M56.6,286.8c-0.1,0.1-0.9-0.3-1.7-1.2c-0.8-0.8-1.3-1.6-1.2-1.7s0.7,0.6,1.6,1.3       C56,286.1,56.6,286.7,56.6,286.8z"></path>				</g>			</g>			<g>				<g>					<path class="st2" d="M45,251.8c0.1,0.1-2.2,1.1-4.9,3.9c-2.7,2.8-5.4,7.7-6.1,13.6c-0.3,3-0.1,5.8,0.3,8.3       c0.4,2.6,1,4.8,1.6,6.7c0.6,1.9,1.1,3.4,1.4,4.4c0.3,1.1,0.5,1.6,0.5,1.6s-0.2-0.6-0.7-1.6c-0.4-1-1-2.5-1.6-4.4       c-0.6-1.9-1.2-4.1-1.6-6.7c-0.4-2.6-0.7-5.4-0.4-8.5c0.7-6,3.6-11,6.4-13.8c1.4-1.4,2.7-2.3,3.7-2.9c0.5-0.3,0.9-0.4,1.2-0.6       C44.9,251.8,45,251.7,45,251.8z"></path>				</g>			</g>			<g>				<g>					<path class="st2" d="M52.7,290.6c-0.1-0.1,1.2-2.2,2.6-6c1.3-3.8,2.4-9.4,1.5-15.5c-0.4-3-1.3-5.8-2.4-8.2       c-1.2-2.4-2.6-4.3-4-5.7c-1.5-1.3-3-2.1-4-2.6c-1.1-0.4-1.6-0.5-1.6-0.6c0,0,0.2,0,0.5,0c0.3,0.1,0.7,0.2,1.2,0.3       c1.1,0.4,2.6,1.1,4.2,2.4c1.6,1.4,3,3.3,4.3,5.8c1.2,2.5,2.1,5.4,2.5,8.4c0.9,6.2-0.2,11.9-1.7,15.7c-0.3,1-0.7,1.8-1,2.6       c-0.3,0.7-0.7,1.3-0.9,1.8C53,290.1,52.7,290.6,52.7,290.6z"></path>				</g>			</g>		</g>		<g>			<polygon points="31,289.3 61.8,289.3 62.1,295.5 31,295.5    "></polygon>		</g>		<g>			<polygon class="st3" points="33.5,292.3 35.3,311.3 58,311.3 59.8,292.6    "></polygon>		</g>		<g>			<g>				<path class="st2" d="M62.1,295.5c0,0.2-7,0.2-15.6,0.2S31,295.6,31,295.5s7-0.2,15.6-0.2C55.1,295.2,62.1,295.4,62.1,295.5z"></path>			</g>		</g>		<g>			<g>				<path class="st2" d="M58.9,301.3c0,0-0.2,0.5-0.7,1.2c-0.5,0.7-1.2,1.7-2.4,2.8l-0.2,0.2l-0.2-0.2c-1.5-1.6-3.5-3.5-6.1-5.3h0.3      c-0.8,0.7-1.7,1.6-2.7,2.4c-1.1,1-2.1,1.9-3.2,2.8l-0.2,0.2l-0.2-0.2c-1.9-1.6-3.7-3.1-5.2-4.4h0.3c-1.1,1.3-2,2.4-2.6,3.3      c-0.7,0.7-1,1.2-1.1,1.2c0,0,0.2-0.5,0.8-1.3c0.7-0.9,1.5-2.1,2.6-3.4l0.2-0.2l0.2,0.2c1.5,1.2,3.3,2.6,5.3,4.3h-0.3      c1-0.9,2.1-1.8,3.1-2.8c0.9-0.8,1.8-1.6,2.7-2.4l0.2-0.2l0.2,0.2c2.6,1.9,4.6,3.9,6,5.5h-0.2C57.9,302.9,58.8,301.2,58.9,301.3z      "></path>			</g>		</g>	</g>	<g>		<g>			<g>				<g>					<g>						<g>							<g>								<g>									<g>										<g>											<g>												<g>													<path class="st1" d="M427.6,306.1H102.1c-6.6,0-12-5.4-12-12V87c0-6.6,5.4-12,12-12h325.5c6.6,0,12,5.4,12,12v207.1               C439.6,300.7,434.2,306.1,427.6,306.1z"></path>												</g>											</g>										</g>									</g>									<g>										<g>											<g>												<g>													<path class="st1" d="M442.6,311.3H93.4c-8.1,0-14.7-6.6-14.7-14.7v-5.5h378.5v5.6C457.3,304.8,450.8,311.3,442.6,311.3               z"></path>												</g>											</g>										</g>									</g>									<g>										<g>											<g>												<g>													<polygon class="st2" points="230.4,288.9 235.1,296.4 301.3,296.4 305.6,288.9              "></polygon>												</g>											</g>										</g>									</g>								</g>								<g>									<g>										<g>											<g>												<path class="st2" d="M436.6,288.9c0,0.2-77.6,0.2-173.2,0.2c-95.7,0-173.2-0.1-173.2-0.2c0-0.2,77.5-0.2,173.2-0.2              C359,288.8,436.6,288.9,436.6,288.9z"></path>											</g>										</g>									</g>								</g>							</g>						</g>					</g>				</g>				<g>					<g>						<g>							<g>								<g>									<g>										<g>											<g>												<path d="M425.6,282.8H102.9c-1.5,0-2.7-1.2-2.7-2.7V91c0-1.5,1.2-2.7,2.7-2.7h322.7c1.5,0,2.7,1.2,2.7,2.7v189.2              C428.2,281.7,427,282.8,425.6,282.8z"></path>											</g>										</g>									</g>								</g>							</g>							<g>								<g>									<g>										<g>											<g>												<polygon class="st3" points="427.9,283.2 99.8,283.2 100.2,102.8 427.9,102.8             "></polygon>											</g>										</g>									</g>								</g>							</g>							<g>								<g>									<g>										<g>											<g>												<path class="st2" d="M127.1,95.8c0,1.5-1.2,2.6-2.6,2.6s-2.6-1.2-2.6-2.6c0-1.5,1.2-2.6,2.6-2.6              C125.9,93.2,127.1,94.3,127.1,95.8z"></path>											</g>										</g>									</g>								</g>							</g>							<g>								<g>									<g>										<g>											<g>												<path class="st2" d="M111.2,95.8c0,1.5-1.2,2.6-2.6,2.6c-1.5,0-2.6-1.2-2.6-2.6c0-1.5,1.2-2.6,2.6-2.6              S111.2,94.3,111.2,95.8z"></path>											</g>										</g>									</g>								</g>							</g>							<g>								<g>									<g>										<g>											<g>												<path class="st2" d="M118.8,95.8c0,1.5-1.2,2.6-2.6,2.6c-1.5,0-2.6-1.2-2.6-2.6c0-1.5,1.2-2.6,2.6-2.6              C117.6,93.2,118.8,94.3,118.8,95.8z"></path>											</g>										</g>									</g>								</g>							</g>						</g>					</g>					<g>						<g class="st4">							<rect x="118.5" y="112.5" class="st5" width="3.4" height="2.9"></rect>							<rect x="118.5" y="121.1" class="st5" width="3.4" height="2.9"></rect>							<rect x="118.5" y="129.7" class="st5" width="3.4" height="2.9"></rect>							<rect x="118.5" y="138.4" class="st5" width="3.4" height="2.9"></rect>							<rect x="118.5" y="147" class="st5" width="3.4" height="2.9"></rect>							<rect x="118.5" y="155.6" class="st5" width="3.4" height="2.9"></rect>							<rect x="118.5" y="164.3" class="st5" width="3.4" height="2.9"></rect>							<rect x="118.5" y="172.8" class="st5" width="3.4" height="2.9"></rect>							<rect x="118.5" y="181.5" class="st5" width="3.4" height="2.9"></rect>							<rect x="118.5" y="190.1" class="st5" width="3.4" height="2.9"></rect>							<rect x="118.5" y="198.7" class="st5" width="3.4" height="2.9"></rect>							<rect x="118.5" y="207.3" class="st5" width="3.4" height="2.9"></rect>							<rect x="118.5" y="215.9" class="st5" width="3.4" height="2.9"></rect>							<rect x="118.5" y="224.5" class="st5" width="3.4" height="2.9"></rect>							<rect x="118.5" y="233.2" class="st5" width="3.4" height="2.9"></rect>							<rect x="118.5" y="241.8" class="st5" width="3.4" height="2.9"></rect>							<rect x="118.5" y="250.4" class="st5" width="3.4" height="2.9"></rect>							<rect x="118.5" y="259" class="st5" width="3.4" height="2.9"></rect>						</g>						<g>							<path class="st6" d="M179.1,112.5h-47.6c-0.8,0-1.4,0.7-1.4,1.4l0,0c0,0.8,0.7,1.4,1.4,1.4h47.6c0.8,0,1.4-0.7,1.4-1.4l0,0         C180.5,113.2,179.8,112.5,179.1,112.5z"></path>							<path class="st7" d="M160.8,121.1h-29.3c-0.8,0-1.4,0.7-1.4,1.4l0,0c0,0.8,0.7,1.4,1.4,1.4h29.3c0.8,0,1.4-0.7,1.4-1.4l0,0         C162.2,121.8,161.5,121.1,160.8,121.1z"></path>							<path class="st8" d="M225.1,121.1H175c-0.8,0-1.4,0.7-1.4,1.4l0,0c0,0.8,0.7,1.4,1.4,1.4h50.1c0.8,0,1.4-0.7,1.4-1.4l0,0         C226.5,121.8,225.9,121.1,225.1,121.1z"></path>							<path class="st8" d="M269.7,121.1h-34.3c-0.8,0-1.4,0.7-1.4,1.4l0,0c0,0.8,0.7,1.4,1.4,1.4h34.3c0.8,0,1.4-0.7,1.4-1.4l0,0         C271.1,121.8,270.6,121.1,269.7,121.1z"></path>							<path class="st7" d="M279.5,122.6L279.5,122.6c0,0.8,0.7,1.4,1.4,1.4h20c0.8,0,1.4-0.7,1.4-1.4l0,0c0-0.8-0.7-1.4-1.4-1.4         h-20C280.1,121.1,279.5,121.8,279.5,122.6z"></path>							<path class="st7" d="M145.9,131.1L145.9,131.1c0,0.8,0.7,1.4,1.4,1.4h55.3c0.8,0,1.4-0.7,1.4-1.4l0,0c0-0.8-0.7-1.4-1.4-1.4         h-55.3C146.5,129.7,145.9,130.4,145.9,131.1z"></path>							<path class="st8" d="M164.1,139.8L164.1,139.8c0,0.8,0.7,1.4,1.4,1.4h48c0.8,0,1.4-0.7,1.4-1.4l0,0c0-0.8-0.7-1.4-1.4-1.4         h-48C164.8,138.4,164.1,139,164.1,139.8z"></path>							<path class="st7" d="M236.9,138.4h-13c-0.8,0-1.4,0.7-1.4,1.4l0,0c0,0.8,0.7,1.4,1.4,1.4h13c0.8,0,1.4-0.7,1.4-1.4l0,0         C238.3,139,237.6,138.4,236.9,138.4z"></path>							<path class="st9" d="M179.9,148.4L179.9,148.4c0,0.8,0.7,1.4,1.4,1.4h11c0.8,0,1.4-0.7,1.4-1.4l0,0c0-0.8-0.7-1.4-1.4-1.4         h-10.9C180.5,147,179.9,147.6,179.9,148.4z"></path>							<path class="st7" d="M244.3,147h-40.4c-0.8,0-1.4,0.7-1.4,1.4l0,0c0,0.8,0.7,1.4,1.4,1.4h40.4c0.8,0,1.4-0.7,1.4-1.4l0,0         C245.7,147.6,245.1,147,244.3,147z"></path>							<path class="st8" d="M280.3,147H255c-0.8,0-1.4,0.7-1.4,1.4l0,0c0,0.8,0.7,1.4,1.4,1.4h25.3c0.8,0,1.4-0.7,1.4-1.4l0,0         C281.8,147.6,281.1,147,280.3,147z"></path>							<path class="st8" d="M342.4,147h-17.6c-0.8,0-1.4,0.7-1.4,1.4l0,0c0,0.8,0.7,1.4,1.4,1.4h17.6c0.8,0,1.4-0.7,1.4-1.4l0,0         C343.8,147.6,343.1,147,342.4,147z"></path>							<path class="st7" d="M305.2,147h-15c-0.8,0-1.4,0.7-1.4,1.4l0,0c0,0.8,0.7,1.4,1.4,1.4h15c0.8,0,1.4-0.7,1.4-1.4l0,0         C306.6,147.6,306.1,147,305.2,147z"></path>							<path class="st6" d="M312.7,148.4L312.7,148.4c0,0.8,0.7,1.4,1.4,1.4h2.6c0.8,0,1.4-0.7,1.4-1.4l0,0c0-0.8-0.7-1.4-1.4-1.4         h-2.6C313.3,147,312.7,147.6,312.7,148.4z"></path>							<path class="st7" d="M179.9,157L179.9,157c0,0.8,0.7,1.4,1.4,1.4h22.9c0.8,0,1.4-0.7,1.4-1.4l0,0c0-0.8-0.7-1.4-1.4-1.4         h-22.8C180.5,155.6,179.9,156.3,179.9,157z"></path>							<path class="st7" d="M304.6,157L304.6,157c0,0.8,0.7,1.4,1.4,1.4h10.7c0.8,0,1.4-0.7,1.4-1.4l0,0c0-0.8-0.7-1.4-1.4-1.4H306         C305.2,155.6,304.6,156.3,304.6,157z"></path>							<path class="st9" d="M295.3,155.6h-27.8c-0.8,0-1.4,0.7-1.4,1.4l0,0c0,0.8,0.7,1.4,1.4,1.4h27.8c0.8,0,1.4-0.7,1.4-1.4l0,0         C296.7,156.3,296.1,155.6,295.3,155.6z"></path>							<path class="st6" d="M257.3,155.6h-40.5c-0.8,0-1.4,0.7-1.4,1.4l0,0c0,0.8,0.7,1.4,1.4,1.4h40.5c0.8,0,1.4-0.7,1.4-1.4l0,0         C258.7,156.3,258,155.6,257.3,155.6z"></path>							<path class="st8" d="M205.6,164.3h-40c-0.8,0-1.4,0.7-1.4,1.4l0,0c0,0.8,0.7,1.4,1.4,1.4h40c0.8,0,1.4-0.7,1.4-1.4l0,0         C207.1,164.8,206.4,164.3,205.6,164.3z"></path>							<path class="st7" d="M215.4,165.7L215.4,165.7c0,0.8,0.7,1.4,1.4,1.4h38.8c0.8,0,1.4-0.7,1.4-1.4l0,0c0-0.8-0.7-1.4-1.4-1.4         h-38.8C215.9,164.3,215.4,164.8,215.4,165.7z"></path>							<path class="st8" d="M265.4,165.7L265.4,165.7c0,0.8,0.7,1.4,1.4,1.4h34c0.8,0,1.4-0.7,1.4-1.4l0,0c0-0.8-0.7-1.4-1.4-1.4         h-34C266.1,164.3,265.4,164.8,265.4,165.7z"></path>							<path class="st7" d="M180.7,172.8h-33.4c-0.8,0-1.4,0.7-1.4,1.4l0,0c0,0.8,0.7,1.4,1.4,1.4h33.4c0.8,0,1.4-0.7,1.4-1.4l0,0         C182.1,173.5,181.4,172.8,180.7,172.8z"></path>							<path class="st7" d="M189.8,174.3L189.8,174.3c0,0.8,0.7,1.4,1.4,1.4h32c0.8,0,1.4-0.7,1.4-1.4l0,0c0-0.8-0.7-1.4-1.4-1.4         h-32C190.4,172.8,189.8,173.5,189.8,174.3z"></path>							<path class="st8" d="M248.9,172.8h-11c-0.8,0-1.4,0.7-1.4,1.4l0,0c0,0.8,0.7,1.4,1.4,1.4h11c0.8,0,1.4-0.7,1.4-1.4l0,0         C250.3,173.5,249.7,172.8,248.9,172.8z"></path>							<path class="st8" d="M196.4,181.5h-30.6c-0.8,0-1.4,0.7-1.4,1.4l0,0c0,0.8,0.7,1.4,1.4,1.4h30.6c0.8,0,1.4-0.7,1.4-1.4l0,0         C197.9,182.1,197.3,181.5,196.4,181.5z"></path>							<path class="st8" d="M207.5,182.9L207.5,182.9c0,0.8,0.7,1.4,1.4,1.4h11.4c0.8,0,1.4-0.7,1.4-1.4l0,0c0-0.8-0.7-1.4-1.4-1.4         h-11.4C208.1,181.5,207.5,182.1,207.5,182.9z"></path>							<path class="st7" d="M197.3,190.1h-15.4c-0.8,0-1.4,0.7-1.4,1.4l0,0c0,0.8,0.7,1.4,1.4,1.4h15.4c0.8,0,1.4-0.7,1.4-1.4l0,0         C198.7,190.7,198.1,190.1,197.3,190.1z"></path>							<path class="st9" d="M207.5,191.5L207.5,191.5c0,0.8,0.7,1.4,1.4,1.4h21.7c0.8,0,1.4-0.7,1.4-1.4l0,0c0-0.8-0.7-1.4-1.4-1.4         h-21.7C208.1,190.1,207.5,190.7,207.5,191.5z"></path>							<path class="st7" d="M238.9,191.5L238.9,191.5c0,0.8,0.7,1.4,1.4,1.4h17.5c0.8,0,1.4-0.7,1.4-1.4l0,0c0-0.8-0.7-1.4-1.4-1.4         h-17.5C239.6,190.1,238.9,190.7,238.9,191.5z"></path>							<path class="st6" d="M266.8,191.5L266.8,191.5c0,0.8,0.7,1.4,1.4,1.4h14.9c0.8,0,1.4-0.7,1.4-1.4l0,0c0-0.8-0.7-1.4-1.4-1.4         h-14.9C267.3,190.1,266.8,190.7,266.8,191.5z"></path>							<path class="st7" d="M175.2,200.2L175.2,200.2c0,0.8,0.7,1.4,1.4,1.4h20.8c0.8,0,1.4-0.7,1.4-1.4l0,0c0-0.8-0.7-1.4-1.4-1.4         h-20.8C175.8,198.7,175.2,199.3,175.2,200.2z"></path>							<path class="st8" d="M166.5,198.7h-35.2c-0.8,0-1.4,0.7-1.4,1.4l0,0c0,0.8,0.7,1.4,1.4,1.4h35.2c0.8,0,1.4-0.7,1.4-1.4l0,0         C168,199.3,167.4,198.7,166.5,198.7z"></path>							<path class="st7" d="M150.7,207.3h-19.3c-0.8,0-1.4,0.7-1.4,1.4l0,0c0,0.8,0.7,1.4,1.4,1.4h19.3c0.8,0,1.4-0.7,1.4-1.4l0,0         C152.1,208,151.5,207.3,150.7,207.3z"></path>							<path class="st8" d="M207.7,207.3H162c-0.8,0-1.4,0.7-1.4,1.4l0,0c0,0.8,0.7,1.4,1.4,1.4h45.7c0.8,0,1.4-0.7,1.4-1.4l0,0         C209.1,208,208.5,207.3,207.7,207.3z"></path>							<path class="st7" d="M268.4,207.3h-50.1c-0.8,0-1.4,0.7-1.4,1.4l0,0c0,0.8,0.7,1.4,1.4,1.4h50.1c0.8,0,1.4-0.7,1.4-1.4l0,0         C269.8,208,269.2,207.3,268.4,207.3z"></path>							<path class="st8" d="M275.8,208.7L275.8,208.7c0,0.8,0.7,1.4,1.4,1.4h23.6c0.8,0,1.4-0.7,1.4-1.4l0,0c0-0.8-0.7-1.4-1.4-1.4         h-23.6C276.5,207.3,275.8,208,275.8,208.7z"></path>							<path class="st6" d="M182.6,215.9h-35.2c-0.8,0-1.4,0.7-1.4,1.4l0,0c0,0.8,0.7,1.4,1.4,1.4h35.2c0.8,0,1.4-0.7,1.4-1.4l0,0         C184,216.6,183.3,215.9,182.6,215.9z"></path>							<path class="st7" d="M230.7,215.9h-38c-0.8,0-1.4,0.7-1.4,1.4l0,0c0,0.8,0.7,1.4,1.4,1.4h38c0.8,0,1.4-0.7,1.4-1.4l0,0         C232.1,216.6,231.4,215.9,230.7,215.9z"></path>							<path class="st9" d="M251.8,215.9h-11c-0.8,0-1.4,0.7-1.4,1.4l0,0c0,0.8,0.7,1.4,1.4,1.4h11c0.8,0,1.4-0.7,1.4-1.4l0,0         C253.3,216.6,252.6,215.9,251.8,215.9z"></path>							<path class="st7" d="M200.4,224.5h-34.9c-0.8,0-1.4,0.7-1.4,1.4l0,0c0,0.8,0.7,1.4,1.4,1.4h34.9c0.8,0,1.4-0.7,1.4-1.4l0,0         C201.9,225.2,201.2,224.5,200.4,224.5z"></path>							<path class="st8" d="M211.4,226L211.4,226c0,0.8,0.7,1.4,1.4,1.4h32.4c0.8,0,1.4-0.7,1.4-1.4l0,0c0-0.8-0.7-1.4-1.4-1.4         h-32.4C212,224.5,211.4,225.2,211.4,226z"></path>							<path class="st8" d="M193.8,233.2h-15.4c-0.8,0-1.4,0.7-1.4,1.4l0,0c0,0.8,0.7,1.4,1.4,1.4h15.4c0.8,0,1.4-0.7,1.4-1.4l0,0         C195.2,233.8,194.5,233.2,193.8,233.2z"></path>							<path class="st7" d="M242.2,233.2h-37.3c-0.8,0-1.4,0.7-1.4,1.4l0,0c0,0.8,0.7,1.4,1.4,1.4h37.3c0.8,0,1.4-0.7,1.4-1.4l0,0         C243.7,233.8,243,233.2,242.2,233.2z"></path>							<path class="st6" d="M287,233.2h-35.3c-0.8,0-1.4,0.7-1.4,1.4l0,0c0,0.8,0.7,1.4,1.4,1.4H287c0.8,0,1.4-0.7,1.4-1.4l0,0         C288.5,233.8,287.8,233.2,287,233.2z"></path>							<path class="st8" d="M295.1,234.6L295.1,234.6c0,0.8,0.7,1.4,1.4,1.4h17.3c0.8,0,1.4-0.7,1.4-1.4l0,0c0-0.8-0.7-1.4-1.4-1.4         h-17.3C295.8,233.2,295.1,233.8,295.1,234.6z"></path>							<path class="st8" d="M249.9,243.2L249.9,243.2c0,0.8,0.7,1.4,1.4,1.4h25c0.8,0,1.4-0.7,1.4-1.4l0,0c0-0.8-0.7-1.4-1.4-1.4         h-25C250.5,241.8,249.9,242.4,249.9,243.2z"></path>							<path class="st7" d="M209.4,243.2L209.4,243.2c0,0.8,0.7,1.4,1.4,1.4h29c0.8,0,1.4-0.7,1.4-1.4l0,0c0-0.8-0.7-1.4-1.4-1.4         h-29C210.1,241.8,209.4,242.4,209.4,243.2z"></path>							<path class="st6" d="M201.6,241.8h-6.1c-0.8,0-1.4,0.7-1.4,1.4l0,0c0,0.8,0.7,1.4,1.4,1.4h6.1c0.8,0,1.4-0.7,1.4-1.4l0,0         C203,242.4,202.4,241.8,201.6,241.8z"></path>							<path class="st9" d="M284.6,243.2L284.6,243.2c0,0.8,0.7,1.4,1.4,1.4H331c0.8,0,1.4-0.7,1.4-1.4l0,0c0-0.8-0.7-1.4-1.4-1.4         H286C285.1,241.8,284.6,242.4,284.6,243.2z"></path>							<path class="st9" d="M197.5,250.4h-19.1c-0.8,0-1.4,0.7-1.4,1.4l0,0c0,0.8,0.7,1.4,1.4,1.4h19.1c0.8,0,1.4-0.7,1.4-1.4l0,0         C199,251.1,198.3,250.4,197.5,250.4z"></path>							<path class="st8" d="M237.7,250.4h-28c-0.8,0-1.4,0.7-1.4,1.4l0,0c0,0.8,0.7,1.4,1.4,1.4h28c0.8,0,1.4-0.7,1.4-1.4l0,0         C239.1,251.1,238.5,250.4,237.7,250.4z"></path>							<path class="st7" d="M293.9,251.8L293.9,251.8c0,0.8,0.7,1.4,1.4,1.4h18.5c0.8,0,1.4-0.7,1.4-1.4l0,0c0-0.8-0.7-1.4-1.4-1.4         h-18.5C294.4,250.4,293.9,251.1,293.9,251.8z"></path>							<path class="st7" d="M286.2,250.4h-37.8c-0.8,0-1.4,0.7-1.4,1.4l0,0c0,0.8,0.7,1.4,1.4,1.4h37.8c0.8,0,1.4-0.7,1.4-1.4l0,0         C287.7,251.1,287,250.4,286.2,250.4z"></path>							<path class="st7" d="M218.4,260.4L218.4,260.4c0,0.8,0.7,1.4,1.4,1.4h32c0.8,0,1.4-0.7,1.4-1.4l0,0c0-0.8-0.7-1.4-1.4-1.4         h-32C219.1,259,218.4,259.6,218.4,260.4z"></path>							<path class="st7" d="M174.7,259h-9.1c-0.8,0-1.4,0.7-1.4,1.4l0,0c0,0.8,0.7,1.4,1.4,1.4h9.1c0.8,0,1.4-0.7,1.4-1.4l0,0         C176.1,259.6,175.4,259,174.7,259z"></path>							<path class="st7" d="M182.5,260.4L182.5,260.4c0,0.8,0.7,1.4,1.4,1.4h25.4c0.8,0,1.4-0.7,1.4-1.4l0,0c0-0.8-0.7-1.4-1.4-1.4         H184C183.2,259,182.5,259.6,182.5,260.4z"></path>							<path class="st8" d="M260.1,260.4L260.1,260.4c0,0.8,0.7,1.4,1.4,1.4h39.5c0.8,0,1.4-0.7,1.4-1.4l0,0c0-0.8-0.7-1.4-1.4-1.4         h-39.5C260.8,259,260.1,259.6,260.1,260.4z"></path>						</g>					</g>				</g>				<g>					<rect x="99.7" y="265.6" class="st2" width="328.4" height="17.4"></rect>					<g>						<g>							<path class="st10" d="M112.1,276.3v0.6h-2.6v-0.4l1.4-1.3c0.3-0.3,0.4-0.6,0.4-0.7c0-0.3-0.2-0.5-0.7-0.5         c-0.3,0-0.7,0.1-0.8,0.3l-0.5-0.3c0.2-0.3,0.7-0.6,1.3-0.6c0.7,0,1.2,0.4,1.2,1c0,0.3-0.1,0.7-0.6,1.2l-1,0.9L112.1,276.3         L112.1,276.3z"></path>							<path class="st10" d="M112.4,274.6c0-0.2,0.2-0.4,0.4-0.4c0.2,0,0.4,0.2,0.4,0.4c0,0.2-0.2,0.4-0.4,0.4         C112.7,275,112.4,274.9,112.4,274.6z M112.4,276.5c0-0.2,0.2-0.4,0.4-0.4c0.2,0,0.4,0.2,0.4,0.4s-0.2,0.4-0.4,0.4         C112.7,276.9,112.4,276.8,112.4,276.5z"></path>							<path class="st10" d="M115,273.4v3.5h-0.7v-3h-0.7v-0.6L115,273.4L115,273.4z"></path>							<path class="st10" d="M118.8,276.1h-0.7v0.8h-0.7v-0.8h-2v-0.5l1.7-2.3h0.7l-1.6,2.2h1.2v-0.7h0.7v0.7h0.7V276.1z"></path>						</g>						<g>							<rect x="124.6" y="274.7" class="st10" width="269.2" height="1.2"></rect>						</g>						<g>							<rect x="124.4" y="273.4" class="st11" width="84.1" height="3.3"></rect>						</g>						<g>							<path class="st11" d="M211.3,275.4c0,2.2-1.8,4.1-4.1,4.1c-2.2,0-4.1-1.8-4.1-4.1c0-2.2,1.8-4.1,4.1-4.1         C209.4,271.2,211.3,273,211.3,275.4z"></path>						</g>						<g>							<path class="st10" d="M400.5,275.3c0,0.7-0.6,1.2-1.3,1.2c-1,0-1.6-0.7-1.6-1.7c0-1.2,0.7-1.9,1.7-1.9c0.3,0,0.7,0.1,0.9,0.2         l-0.2,0.5c-0.2-0.2-0.4-0.2-0.7-0.2c-0.7,0-1.1,0.4-1.1,1.2l0,0c0.2-0.2,0.6-0.3,1-0.3C400,274.2,400.5,274.6,400.5,275.3z          M399.9,275.3c0-0.3-0.2-0.6-0.7-0.6c-0.4,0-0.7,0.2-0.7,0.6c0,0.3,0.2,0.6,0.7,0.6C399.6,275.9,399.9,275.7,399.9,275.3z"></path>							<path class="st10" d="M400.8,274c0-0.2,0.2-0.4,0.4-0.4s0.4,0.2,0.4,0.4s-0.2,0.4-0.4,0.4S400.8,274.3,400.8,274z M400.8,276         c0-0.2,0.2-0.4,0.4-0.4s0.4,0.2,0.4,0.4s-0.2,0.4-0.4,0.4S400.8,276.3,400.8,276z"></path>							<path class="st10" d="M402.1,274.6c0-1.2,0.7-1.8,1.5-1.8s1.5,0.7,1.5,1.8s-0.7,1.8-1.5,1.8S402.1,275.8,402.1,274.6z          M404.4,274.6c0-0.8-0.3-1.2-0.8-1.2s-0.8,0.4-0.8,1.2c0,0.8,0.3,1.2,0.8,1.2S404.4,275.4,404.4,274.6z"></path>							<path class="st10" d="M405.5,274.6c0-1.2,0.7-1.8,1.5-1.8c0.8,0,1.5,0.7,1.5,1.8s-0.7,1.8-1.5,1.8         C406.2,276.4,405.5,275.8,405.5,274.6z M407.8,274.6c0-0.8-0.3-1.2-0.8-1.2c-0.5,0-0.8,0.4-0.8,1.2c0,0.8,0.3,1.2,0.8,1.2         C407.5,275.8,407.8,275.4,407.8,274.6z"></path>						</g>						<g>							<polygon class="st10" points="414.2,274.4 413,274.4 413,270.8 416.5,270.8 416.5,272.1 414.2,272.1        "></polygon>						</g>						<g>							<polygon class="st10" points="416.5,279 413,279 413,275.4 414.2,275.4 414.2,277.7 416.5,277.7        "></polygon>						</g>						<g>							<polygon class="st10" points="422.2,279 418.6,279 418.6,277.7 420.9,277.7 420.9,275.4 422.2,275.4        "></polygon>						</g>						<g>							<polygon class="st10" points="422.2,274.4 420.9,274.4 420.9,272.1 418.6,272.1 418.6,270.8 422.2,270.8        "></polygon>						</g>					</g>				</g>			</g>		</g>		<g>			<path class="st11" d="M316.6,159.9c0,0,10.3,5,13.9,18c3.6,13,14.7,46.8,14.7,46.8s6.3,7.5,7,13c0.7,5.5-0.7,18.9-2.7,21.4     c-2.1,2.5-4.9,2.1-4.9,2.1l-26.7-2.6l-10.5-70.4L316.6,159.9z"></path>			<path class="st11" d="M228.3,158.7c0,0-19.1,6-23.9,11.2l15.6,72.7l-0.2,23h90.5c0-1.2,0.8-76.2,0.8-76.2l5.4-29.5l-32.2-5.7     l-6.3-5l-35.8,1.8l-5.4,5.4L228.3,158.7z"></path>			<g class="st12">				<path d="M235.6,221.7c-0.2-0.6-0.7-1.3-1.3-1.4c-1.1-0.2-1.8,1.1-2.2,2.1c-3,8.3-6.8,16-11.9,23.2l-0.2,11.2      c5.3-4.4,10.5-9.2,13.8-15.2C237.1,235.6,238.4,228.1,235.6,221.7z"></path>			</g>			<path class="st11" d="M204.4,169.9c0,0-6.3,8.6-8.9,14.2c-2.6,5.6-24.2,52.6-25.5,57.5c-1.3,4.9-4.7,20.2,5.2,23.7h20.3     l20.4-41.3L217,176L204.4,169.9z"></path>			<g>				<path class="st2" d="M196.8,235.4c0,0-0.5-0.4-1.4-0.9c-0.9-0.5-2.4-1.2-4.3-1.6c-0.9-0.2-2-0.3-3.1-0.4      c-1.2-0.1-2.3-0.1-3.5,0.2c-2.5,0.6-4.9,2.1-6.8,4.3c-2,2.2-3.1,4.8-3.9,7.2c-0.7,2.5-1,4.7-1.2,6.7c-0.2,1.9-0.2,3.5-0.3,4.5      c0,0.5-0.1,0.9-0.1,1.2c0,0.2,0,0.4-0.1,0.4c0,0,0-0.2,0-0.4c0-0.3,0-0.7,0-1.2c0-1.1,0.1-2.6,0.2-4.6c0.2-1.9,0.4-4.3,1.2-6.8      c0.7-2.5,1.9-5.1,4-7.3c2-2.2,4.5-3.9,7.1-4.4c1.2-0.2,2.6-0.3,3.7-0.2c1.2,0.1,2.2,0.2,3.1,0.5c1.9,0.4,3.4,1.1,4.3,1.6      c0.5,0.3,0.8,0.6,1,0.7C196.8,235.2,196.8,235.4,196.8,235.4z"></path>			</g>			<g>				<path class="st2" d="M187.2,227.2c0,0,0.2-0.1,0.7-0.1c0.4-0.1,1.1-0.1,1.9,0c0.8,0,1.7,0.2,2.8,0.4c1,0.2,2.1,0.7,3.2,1.2      c1.1,0.5,2.1,1.2,3,1.8c0.8,0.7,1.6,1.3,2.1,1.9c0.5,0.6,0.9,1.1,1.2,1.5c0.2,0.4,0.3,0.6,0.3,0.6c-0.1,0.1-0.6-0.7-1.7-1.9      c-0.6-0.6-1.2-1.2-2.1-1.8c-0.8-0.6-1.8-1.2-2.9-1.7c-1.1-0.5-2.1-0.9-3.1-1.2c-1-0.2-1.9-0.4-2.7-0.5      C188.2,227.2,187.2,227.3,187.2,227.2z"></path>			</g>			<g>				<path class="st2" d="M205.6,225c0,0-0.3,0-0.9-0.1c-0.6-0.1-1.5-0.2-2.6-0.2c-2.1-0.2-5.1-0.2-8.4,0.2c-3.3,0.4-6.2,1.2-8.2,1.8      c-1,0.3-1.8,0.7-2.4,0.8c-0.6,0.2-0.9,0.3-0.9,0.3s0.2-0.2,0.8-0.4c0.6-0.2,1.4-0.6,2.4-1c2.1-0.7,4.9-1.6,8.2-1.9      c3.3-0.4,6.3-0.3,8.5-0.1c1.1,0.1,2,0.2,2.6,0.3C205.2,224.8,205.6,224.9,205.6,225z"></path>			</g>			<g>				<path class="st2" d="M263.6,184.8c0,0-0.1-0.1-0.2-0.2c-0.2-0.2-0.3-0.4-0.6-0.7c-0.5-0.7-1.2-1.6-2.1-2.8      c-1.7-2.5-4.2-5.9-7.1-10l0.3-0.1c-1.1,3.2-2.3,6.8-3.5,10.5l-0.1,0.2l-0.2-0.2c-0.2-0.1-0.2-0.2-0.4-0.2      c-1.6-1.1-3.1-2.4-4.4-3.7c-1.2-1.4-2.3-2.9-3.1-4.4c-1.7-3-2.8-5.9-3.5-8.4c-0.7-2.5-1.1-4.5-1.3-6c-0.1-0.7-0.2-1.2-0.2-1.6      c0-0.2-0.1-0.3-0.1-0.4c0-0.1-0.1-0.2-0.1-0.2c0.1,0,0.3,0.7,0.6,2.1c0.3,1.4,0.7,3.5,1.4,5.9c0.7,2.5,1.8,5.4,3.5,8.3      c0.8,1.5,1.9,3,3.1,4.3c1.2,1.4,2.7,2.6,4.4,3.7c0.2,0.1,0.2,0.2,0.4,0.2l-0.2,0.1c1.3-3.7,2.5-7.2,3.6-10.5l0.1-0.3l0.2,0.3      c2.8,4.1,5.3,7.6,7,10c0.8,1.2,1.5,2.2,2,2.9c0.2,0.3,0.4,0.6,0.5,0.7C263.5,184.7,263.6,184.8,263.6,184.8z"></path>			</g>			<g class="st12">				<path d="M287.1,219.4c-0.8,8.4,1,17,5.2,24.4c4.2,7.3,10.4,13.8,18,17.4c0.2-7.5-0.1-16.2,0.2-23.7L287.1,219.4z"></path>			</g>			<g>				<path class="st13" d="M286.2,209.6c0,0-3.3,0.9-0.8,7.7c2.5,6.8,3.3,6.3,4.9,12.6s3.5,12,6.4,15.6c2.9,3.5,13.6,10.8,13.6,10.8      l9.6-9.1c0,0-1.6-6.8-1.2-11.3c0.4-4.6,1.3-15.8,1.2-17.7c-0.2-1.9-2.2-6.6-2.2-6.6v-3.2l-4.9-15.2c0,0-2.7-1.2-3.7,3.1      l-1.6-4.6c0,0-2.6-0.4-3.3,4.9s0.6,12.8,0.6,12.8l-1.4,9.3l-2.1,6.3l-1.8,0.2c0,0-2.7-0.7-4.1-5.8      C293.9,214.6,289.9,208.6,286.2,209.6z"></path>				<g>					<path class="st14" d="M316.7,233.4c0,0,0-0.1-0.1-0.3c0-0.2,0-0.6-0.1-1c-0.1-0.9-0.1-2.2-0.2-3.8c-0.2-3.3-0.3-7.8-0.6-13.1       l0.1,0.1c-0.4-0.5-1.2-0.7-2-0.5c-0.7,0.2-1.4,0.7-1.8,1.3c-0.8,1.3-0.9,3.1-1.2,4.8c-0.5,3.9-1,7.5-1.5,10.8       c-0.2,1.6-0.5,3.2-0.8,4.7c-0.3,1.5-0.7,2.8-1.2,4c-0.4,1.2-0.8,2.3-1.1,3.2c-0.2,1-0.3,1.8-0.3,2.6c0,1.4,0.4,2.1,0.4,2.1       s-0.1-0.2-0.2-0.5c-0.1-0.3-0.2-0.9-0.3-1.6c-0.1-0.7,0-1.6,0.2-2.6c0.2-1,0.6-2.1,1-3.3c0.4-1.2,0.8-2.6,1.2-4       c0.3-1.5,0.5-3,0.7-4.7c0.4-3.3,0.9-7,1.4-10.8c0.1-0.8,0.2-1.7,0.3-2.6c0.2-0.8,0.4-1.6,0.8-2.4c0.4-0.7,1.2-1.3,2-1.5       c0.8-0.2,1.7,0,2.3,0.7v0.1v0.1c0.2,5.4,0.3,9.9,0.4,13.2c0,1.6,0.1,2.9,0.1,3.8c0,0.4,0,0.7,0,1       C316.8,233.4,316.7,233.4,316.7,233.4z"></path>				</g>				<g>					<path class="st14" d="M311.5,216.2c0,0-0.2-0.3-0.4-0.8c-0.2-0.6-0.5-1.4-0.8-2.5c-0.2-1.1-0.6-2.3-0.7-3.8       c-0.1-0.7-0.2-1.5,0-2.3c0.1-0.8,0.3-1.6,0.8-2.4c0.4-0.7,1.1-1.1,1.7-1.3l0.2-0.1l0.1,0.2c1.4,2.5,2.6,4.6,3.5,6.2       c0.4,0.7,0.7,1.3,1,1.8c0.2,0.4,0.3,0.7,0.3,0.7s-0.2-0.2-0.4-0.7c-0.3-0.5-0.7-1.1-1.1-1.8c-0.9-1.5-2.1-3.6-3.5-6.1l0.2,0.1       c-0.6,0.2-1.2,0.6-1.6,1.2c-0.5,0.7-0.7,1.4-0.7,2.1c-0.1,0.7-0.1,1.5,0,2.2c0.2,1.4,0.3,2.7,0.6,3.7c0.2,1.1,0.5,1.9,0.7,2.5       C311.4,215.9,311.5,216.2,311.5,216.2z"></path>				</g>				<g>					<path class="st14" d="M309.2,217.5c0,0-0.1-0.3-0.1-0.9c0-0.7-0.1-1.5-0.1-2.4c-0.1-2-0.2-4.8-0.2-7.9c0-3-0.2-5.8,0.1-7.9       c0.2-1,0.3-1.8,0.5-2.3c0.2-0.6,0.3-0.8,0.3-0.8c0.1,0-0.4,1.2-0.6,3.2c-0.2,2,0,4.8,0,7.8c0.1,3,0.1,5.8,0.1,7.9       c0,0.9,0,1.7,0,2.4C309.2,217.1,309.2,217.5,309.2,217.5z"></path>				</g>				<g>					<path class="st14" d="M301,242.7c-0.1-0.1,0.6-0.7,1.3-2.1c0.4-0.7,0.7-1.4,1.2-2.3c0.3-0.9,0.7-2,0.8-3s0.2-2.1,0.2-3.1       s-0.1-1.8-0.2-2.6c-0.2-1.5-0.6-2.3-0.5-2.4c0,0,0.1,0.2,0.2,0.6c0.2,0.4,0.3,1,0.5,1.7s0.2,1.6,0.3,2.6c0,1-0.1,2.1-0.2,3.2       c-0.2,1.2-0.6,2.2-0.9,3.1c-0.4,0.9-0.8,1.7-1.2,2.4s-0.7,1.2-1.1,1.4C301.3,242.6,301.1,242.7,301,242.7z"></path>				</g>				<path class="st13" d="M317.9,238l8.3,2.9c0,0,7.9-4.1,13.4,0c5.5,4.1,10.2,14.9,8.7,19.4c0,0-3.8,4.7-6.7,5.4s-14.1-2.1-18.7-3      c-4.7-1-12.7-6.2-12.7-6.2L317.9,238z"></path>				<g>					<path class="st14" d="M318.9,250.2c0,0-0.1-0.2-0.1-0.7c0-0.6-0.1-1.2-0.1-2c-0.1-1.7-0.2-4-0.2-6.7c0-2.6,0-4.9,0.2-6.7       c0.1-0.8,0.2-1.6,0.2-2c0.1-0.5,0.2-0.7,0.2-0.7c0.1,0-0.1,1.1-0.2,2.7c-0.1,1.7-0.1,4-0.1,6.6c0.1,2.6,0.1,4.9,0.1,6.7       c0,0.8,0,1.6,0,2C319,250,319,250.2,318.9,250.2z"></path>				</g>			</g>			<g>				<path class="st2" d="M346.3,240.5c-0.1,0.1-0.9-1.2-2.8-2.5c-1.8-1.4-4.8-2.8-8.3-3c-3.5-0.2-6.6,0.9-8.6,2.1s-3,2.2-3,2.1      c0,0,0.2-0.3,0.7-0.7c0.5-0.4,1.2-1.1,2.2-1.6c2-1.2,5.1-2.5,8.7-2.2c3.6,0.2,6.6,1.7,8.4,3.2c0.9,0.7,1.6,1.4,2,1.9      C346.2,240.2,346.4,240.5,346.3,240.5z"></path>			</g>			<g>				<path class="st2" d="M345.3,233.6c-0.1,0.1-1.2-1.1-3.5-1.9c-2.2-0.9-5.8-1.3-9.4-0.2c-1.8,0.5-3.5,1.2-4.9,2      c-1.4,0.8-2.6,1.6-3.5,2.5c-0.9,0.8-1.6,1.5-2.1,2c-0.5,0.5-0.7,0.7-0.8,0.7c0,0,0.2-0.3,0.7-0.8c0.5-0.5,1.2-1.2,2.1-2.1      c0.9-0.8,2.1-1.7,3.5-2.6c1.4-0.8,3-1.6,4.9-2.1c3.7-1.1,7.2-0.6,9.6,0.4c1.2,0.5,2,1,2.6,1.5c0.2,0.2,0.5,0.4,0.6,0.5      C345.3,233.5,345.3,233.6,345.3,233.6z"></path>			</g>			<g>				<path class="st2" d="M345.3,227.6c0,0.1-1.5-0.3-3.9-0.7c-1.2-0.2-2.6-0.2-4.3-0.2s-3.4,0.2-5.2,0.5c-1.8,0.3-3.5,0.8-5,1.3      c-1.5,0.6-2.8,1.2-4,1.7c-2.1,1.2-3.4,2.1-3.5,2c0,0,0.2-0.2,0.8-0.7c0.2-0.2,0.6-0.5,1.1-0.7c0.4-0.2,0.9-0.6,1.4-0.8      c1.1-0.6,2.4-1.2,4-1.8c1.6-0.6,3.3-1.1,5.1-1.4c1.9-0.3,3.6-0.4,5.3-0.4s3.1,0.2,4.3,0.3c0.6,0.1,1.2,0.2,1.6,0.3      c0.5,0.1,0.9,0.2,1.2,0.3C345,227.4,345.3,227.6,345.3,227.6z"></path>			</g>			<g>				<path class="st2" d="M281.6,154c0,0,0.4,0.7,0.6,2.2c0.2,1.5,0.2,3.7-0.3,6.4c-0.2,1.4-0.6,2.9-1.1,4.5c-0.5,1.6-1.3,3.3-2.2,5      c-1.8,3.5-4,7.2-6.7,11.2l-0.3,0.5v-0.6c0-2.6,0-5.4,0-8.3l0.3,0.2c-2.2,1.8-4.6,3.7-7,5.7l0.1-0.1c-1.6,5.2-2.7,10.9-3.1,16.9      c-0.7,9.1-0.2,17.9,0.3,25.9c0.3,7.9,0.6,15.1,0.8,21.1s0.5,10.9,0.7,14.2c0.1,1.6,0.2,3,0.2,3.9c0,0.4,0.1,0.7,0.1,1      c0,0.2,0,0.3,0,0.3s0-0.1-0.1-0.3c0-0.2-0.1-0.6-0.1-1c-0.1-0.9-0.2-2.2-0.3-3.9c-0.2-3.4-0.5-8.2-0.7-14.2      c-0.2-6-0.6-13.2-0.9-21.1c-0.4-7.9-1-16.7-0.3-25.9c0.4-6,1.5-11.8,3.1-17v-0.1h0.1c2.4-2,4.8-3.9,7-5.7l0.3-0.2v0.4      c0,2.9,0,5.7,0,8.3l-0.3-0.1c5.2-8,9.4-15,10-20.6c0.5-2.7,0.6-4.9,0.4-6.4c-0.1-0.7-0.2-1.3-0.3-1.6      C281.7,154.2,281.6,154,281.6,154z"></path>			</g>			<path class="st15" d="M268.2,250.9h-0.2c-1.1,0-2.1,1-2.1,2.1c0,1.1,1,2.1,2.1,2.1c1.1,0,2.1-0.9,2.2-2     C270.1,252.1,269.2,251.1,268.2,250.9z"></path>			<g>				<path class="st15" d="M268.2,222h-0.2c-1.1,0-2.1,1-2.1,2.1c0,1.1,1,2.1,2.1,2.1c1.1,0,2.1-0.9,2.2-2      C270.1,223.1,269.2,222.1,268.2,222z"></path>				<path class="st15" d="M267.8,196c1.1,0,2.1-0.9,2.2-2c0.1-1.1-0.8-2.1-1.9-2.2h-0.2c-1.1,0-2.1,1-2.1,2.1      C265.8,195.1,266.8,196,267.8,196z"></path>			</g>			<g>				<g>					<g>						<path class="st2" d="M235.4,120.1c-2.6-2.9-5.3-5.8-7.2-9.3c-1.9-3.5-3-7.4-2.5-11.3c0.4-2.3,1.3-4.4,1.5-6.8        c0.2-3.1-1.2-6.4,0-9.4c1.7-4.6,8-5.4,11.8-8.6c3-2.5,4.4-6.5,7.6-8.6c2.8-1.8,6.4-1.8,9.8-1.3c3.3,0.5,6.7,1.3,10,0.8        c2.4-0.3,4.6-1.3,6.9-1.9s4.9-0.7,7,0.5c2.1,1.2,3.2,4.1,1.9,6.1c3.9-1.8,8.7,1.2,9.8,5.4c1.1,4.1-1.1,8.6-4.4,11.3        c-3.3,2.7-7.5,4-11.7,4.8c-11.9,2.2-24.7,1-34.8-5.4"></path>					</g>					<g>						<g>							<g>								<g>									<g>										<g>											<g>												<g>													<g>														<g>															<g>																<g>																	<g>																		<g>																			<g>																				<g>																					<g>																						<path class="st13" d="M277,159.9c-0.6-4.4-1.1-8.2-1.1-8.6c0,0,15-3.4,14.2-18.5c-0.4-7.3-2.5-22.3-4.4-35.8                        c-2.1-14.6-15.2-25-29.8-24l-1.5,0.1c-15.6,2-22.7,16.4-20.3,32l8.5,52.4c0,0,3.6,11.6,11.4,13.6l9.7,13.9                        l1.6-6l7.2-6.3c0,0,1.6-1.8,3.5-5.4C277.6,164.3,277.2,161.3,277,159.9z"></path>																					</g>																				</g>																			</g>																		</g>																	</g>																</g>															</g>														</g>													</g>												</g>												<g>													<g>														<g>															<g>																<g>																	<g>																		<g>																			<g>																				<g>																					<g>																						<path class="st14" d="M275.9,151c0,0-9.5,1.4-20.1-4.3c0,0,5.4,10.5,20.4,8.2L275.9,151z"></path>																					</g>																				</g>																			</g>																		</g>																	</g>																</g>															</g>														</g>													</g>												</g>											</g>										</g>									</g>									<g>										<g>											<g>												<g>													<g>														<g>															<g>																<g>																	<g>																		<g>																			<g>																				<g>																					<g>																						<g>																							<g>																								<g>																									<path class="st2" d="M280.8,109.8c0.1,1.2-0.7,2.1-2,2.3c-1.2,0.2-2.2-0.7-2.4-1.8                           c-0.1-1.2,0.7-2.1,1.9-2.3C279.6,107.9,280.6,108.7,280.8,109.8z"></path>																								</g>																							</g>																						</g>																					</g>																				</g>																			</g>																		</g>																	</g>																</g>															</g>															<g>																<g>																	<g>																		<g>																			<g>																				<g>																					<g>																						<g>																							<g>																								<g>																									<g>																										<path class="st2" d="M282.8,104.5c-0.2,0.3-2-0.8-4.3-0.7c-2.3,0.2-4,1.4-4.2,1.2                            c-0.2-0.1,0.1-0.7,0.8-1.2c0.7-0.6,1.9-1.2,3.4-1.3s2.7,0.3,3.5,0.8C282.7,103.8,283,104.3,282.8,104.5z"></path>																									</g>																								</g>																							</g>																						</g>																					</g>																				</g>																			</g>																		</g>																	</g>																</g>															</g>														</g>														<g>															<g>																<g>																	<g>																		<g>																			<g>																				<g>																					<g>																						<g>																							<g>																								<g>																									<path class="st2" d="M258.8,111.4c0.1,1.2-0.7,2.1-2,2.3c-1.2,0.2-2.2-0.7-2.4-1.8                           c-0.1-1.2,0.7-2.1,1.9-2.3C257.6,109.5,258.7,110.2,258.8,111.4z"></path>																								</g>																							</g>																						</g>																					</g>																				</g>																			</g>																		</g>																	</g>																</g>															</g>															<g>																<g>																	<g>																		<g>																			<g>																				<g>																					<g>																						<g>																							<g>																								<g>																									<g>																										<path class="st2" d="M260,106.4c-0.2,0.3-2-0.8-4.3-0.7c-2.3,0.2-4,1.4-4.2,1.2c-0.2-0.1,0.1-0.7,0.8-1.2                            c0.7-0.6,1.9-1.2,3.4-1.3c1.5-0.1,2.7,0.3,3.5,0.8C259.9,105.8,260.2,106.3,260,106.4z"></path>																									</g>																								</g>																							</g>																						</g>																					</g>																				</g>																			</g>																		</g>																	</g>																</g>															</g>														</g>														<g>															<g>																<g>																	<g>																		<g>																			<g>																				<g>																					<g>																						<g>																							<g>																								<g>																									<path class="st2" d="M269.6,123.1c0-0.2,1.4-0.5,3.7-0.9c0.6-0.1,1.2-0.2,1.2-0.7c0.1-0.4-0.2-1.1-0.5-1.7                           c-0.7-1.4-1.3-2.9-2.1-4.4c-2.9-6.3-5-11.4-4.7-11.5c0.2-0.1,2.8,4.9,5.7,11.1c0.7,1.6,1.3,3,2,4.4                           c0.2,0.7,0.7,1.4,0.5,2.3c-0.2,0.5-0.6,0.8-0.9,0.9c-0.4,0.2-0.7,0.2-1,0.2                           C271.1,123.2,269.6,123.2,269.6,123.1z"></path>																								</g>																							</g>																						</g>																					</g>																				</g>																			</g>																		</g>																	</g>																</g>															</g>														</g>													</g>												</g>											</g>											<g>												<g>													<g>														<g>															<g>																<g>																	<g>																		<g>																			<g>																				<g>																					<path class="st2" d="M260,97.3c-0.2,0.7-2.6,0.5-5.3,1c-2.7,0.5-4.9,1.4-5.3,0.8c-0.2-0.2,0.2-0.9,1-1.6                       c0.8-0.7,2.2-1.3,3.9-1.6c1.6-0.2,3.1-0.2,4.2,0.2C259.6,96.5,260.1,97,260,97.3z"></path>																				</g>																			</g>																		</g>																	</g>																</g>															</g>														</g>													</g>												</g>											</g>											<g>												<g>													<g>														<g>															<g>																<g>																	<g>																		<g>																			<g>																				<g>																					<path class="st2" d="M281.6,97.8c-0.4,0.6-2,0.1-4,0.2c-1.9,0-3.5,0.6-4,0.1c-0.2-0.2,0-0.8,0.7-1.3                       c0.7-0.6,1.8-1.1,3.1-1.1c1.3-0.1,2.5,0.3,3.2,0.8C281.4,97,281.8,97.5,281.6,97.8z"></path>																				</g>																			</g>																		</g>																	</g>																</g>															</g>														</g>													</g>												</g>											</g>										</g>									</g>								</g>							</g>						</g>						<g>							<g>								<g>									<g>										<g>											<g>												<g>													<g>														<g>															<g>																<g>																	<path class="st13" d="M236,116c-0.2-0.1-10.6-2.4-9.6,7.9c1,10.3,12.2,6.9,12.2,6.7C238.6,130.3,236,116,236,116z"></path>																</g>															</g>														</g>													</g>												</g>											</g>										</g>									</g>								</g>							</g>							<g>								<g>									<g>										<g>											<g>												<g>													<g>														<g>															<g>																<g>																	<g>																		<path class="st14" d="M234,127.2c-0.1,0-0.2,0.2-0.5,0.3c-0.2,0.2-0.8,0.3-1.3,0.2c-1.2-0.3-2.2-1.9-2.5-3.8                    c-0.1-0.9,0-1.8,0.2-2.6c0.2-0.8,0.7-1.4,1.2-1.5c0.5-0.2,1,0.1,1.1,0.4c0.2,0.2,0.1,0.5,0.2,0.5                    c0,0,0.2-0.2,0.1-0.6c-0.1-0.2-0.2-0.4-0.5-0.6c-0.2-0.2-0.7-0.2-1-0.2c-0.8,0.2-1.4,0.9-1.7,1.8                    c-0.3,0.8-0.5,1.9-0.3,3c0.2,2.1,1.6,4,3,4.2c0.7,0.1,1.3-0.2,1.6-0.4C234,127.4,234.1,127.3,234,127.2z"></path>																	</g>																</g>															</g>														</g>													</g>												</g>											</g>										</g>									</g>								</g>							</g>						</g>						<g>							<g>								<g>									<path class="st2" d="M284.9,82.7c-0.7,4.1-9.1,7.9-16,7.7c-6.3-0.2-9.5-3.4-14.2-5.6c-3-1.4-3-1.4-6.9-0.7           c-3.2,0.5-4.9,4.3-6.7,7c3.5,7.5,2.1,16.2,0.6,24.3c-0.2,0.9-0.3,1.9-1.1,2.5c-1.2,1-3,0.4-4.2-0.7           c-1.8-1.6-2.6-4.1-3.3-6.6c-1.4-5.4-1.9-11.2-1-16.8c0.9-5.6,3.2-11,7-15.2c4.8-5.2,11.7-8.2,18.8-8.6           c7-0.3,14.1,1.8,20,5.7C280.8,77.6,283.3,79.8,284.9,82.7"></path>								</g>							</g>						</g>					</g>				</g>				<path class="st14" d="M271.1,128.3c-1.7-0.8-3.5-1.6-5.3-2.5c-0.3-0.2-0.7-0.2-1-0.2c-0.4,0.1-0.7,0.3-0.9,0.7      c-1.2,1.5-1.6,3.7-0.6,5.4c0.9,1.6,3.1,2.6,4.9,1.8c1.9-0.7,2.8-3,2.9-4.9L271.1,128.3z"></path>				<g>					<path class="st2" d="M268.6,133.8c0,0.1-0.2,0.2-0.7,0.3c-0.5,0.1-1.3,0.2-2.2-0.2c-0.9-0.3-2-1-2.6-2.1       c-0.7-1.2-0.9-2.7-0.3-4.1c0.2-0.7,0.7-1.3,1.2-1.8c0.2-0.2,0.6-0.5,0.8-0.7c0.2-0.1,0.3-0.2,0.6-0.2c0.2,0,0.4,0.1,0.6,0.1       c0.3,0.2,0.6,0.3,0.8,0.5c0.2,0.2,0.5,0.3,0.7,0.4c0.5,0.2,0.9,0.6,1.3,0.8c1.6,1,2.5,1.6,2.5,1.7c-0.1,0.1-1.1-0.4-2.7-1.2       c-0.4-0.2-0.8-0.5-1.3-0.7c-0.2-0.2-0.5-0.2-0.7-0.4c-0.2-0.2-0.5-0.3-0.7-0.4c-0.2-0.1-0.3-0.1-0.6,0.1       c-0.2,0.2-0.5,0.3-0.7,0.6c-0.4,0.4-0.8,1-1,1.6c-0.5,1.2-0.3,2.6,0.2,3.5c0.5,1,1.4,1.6,2.1,2c0.8,0.3,1.6,0.4,2.1,0.4       C268.2,133.8,268.5,133.8,268.6,133.8z"></path>				</g>				<g>					<path class="st2" d="M266.9,110.1c-0.1,0,0-1-0.4-2.6c-0.4-1.6-1.5-4-4-5.8c-1.2-0.9-2.7-1.6-4.4-2c-1.7-0.3-3.7-0.2-5.6,0.5       c-0.9,0.3-1.8,0.8-2.7,1.5c-0.8,0.6-1.6,1.4-2.2,2.2c-1.3,1.7-2.1,4-2.1,6.3s0.7,4.5,2.1,6.3c0.7,0.9,1.4,1.6,2.2,2.2       c0.8,0.7,1.7,1.2,2.7,1.5c1.9,0.7,3.8,0.7,5.6,0.5c1.7-0.3,3.3-1.1,4.4-2c2.5-1.8,3.5-4.2,4-5.8S266.8,110.1,266.9,110.1       c0,0,0,0.1,0,0.2c0,0.2,0,0.3,0,0.5c0,0.2,0,0.5-0.1,0.8s-0.1,0.7-0.2,1.2c-0.2,0.8-0.6,1.8-1.2,2.9c-0.6,1.1-1.5,2.1-2.7,3.1       c-1.2,0.9-2.8,1.7-4.6,2.1s-3.8,0.2-5.8-0.5c-1-0.3-1.9-0.8-2.8-1.5c-0.9-0.7-1.6-1.4-2.3-2.3c-1.3-1.8-2.1-4.1-2.1-6.5       s0.8-4.7,2.1-6.5c0.7-0.9,1.5-1.7,2.3-2.3c0.8-0.7,1.8-1.2,2.8-1.5c1.9-0.7,4-0.7,5.8-0.5c1.8,0.3,3.4,1.2,4.6,2.1       c1.2,0.9,2.1,2.1,2.7,3.1c0.6,1.1,1,2.1,1.2,2.9c0.1,0.4,0.2,0.8,0.2,1.2c0.1,0.3,0.1,0.6,0.1,0.8c0,0.2,0,0.4,0,0.5       C266.9,110.1,266.9,110.1,266.9,110.1z"></path>				</g>				<g>					<path class="st2" d="M292.6,109.1c-0.1,0,0-0.9-0.4-2.6c-0.4-1.6-1.5-3.9-3.8-5.7c-1.2-0.9-2.6-1.6-4.4-1.9       c-1.7-0.2-3.6-0.2-5.4,0.5c-0.9,0.3-1.8,0.8-2.6,1.4c-0.8,0.6-1.6,1.3-2.1,2.2c-1.2,1.6-2,3.9-2,6.1c0,2.2,0.7,4.4,2,6.1       c0.6,0.8,1.3,1.6,2.1,2.2c0.8,0.6,1.7,1.1,2.6,1.4c1.8,0.7,3.7,0.7,5.4,0.5c1.7-0.3,3.2-1.1,4.4-1.9c2.4-1.8,3.5-4.1,3.8-5.7       C292.6,110,292.5,109.1,292.6,109.1c0,0,0,0.2,0,0.7c0,0.2,0,0.5-0.1,0.8c-0.1,0.3-0.1,0.7-0.2,1.1c-0.3,1.6-1.4,4-3.8,5.8       c-1.2,0.9-2.7,1.7-4.4,2c-1.7,0.3-3.7,0.2-5.6-0.4c-1-0.3-1.9-0.8-2.7-1.5c-0.8-0.6-1.6-1.4-2.2-2.3c-1.3-1.7-2.1-4-2.1-6.3       c0-2.3,0.7-4.6,2.1-6.3c0.7-0.9,1.4-1.6,2.2-2.2c0.8-0.7,1.7-1.2,2.7-1.5c1.9-0.7,3.9-0.7,5.6-0.4c1.7,0.3,3.3,1.1,4.4,2       c2.4,1.9,3.5,4.3,3.8,5.8c0.1,0.4,0.2,0.7,0.2,1.1c0.1,0.3,0.1,0.6,0.1,0.8C292.6,108.8,292.6,109.1,292.6,109.1z"></path>				</g>				<g>					<path class="st2" d="M271.6,106.7c-0.1,0.1-0.3-0.2-0.7-0.4c-0.4-0.2-1.2-0.4-1.9-0.4s-1.4,0.2-1.9,0.5       c-0.4,0.2-0.7,0.5-0.7,0.4c0,0,0.2-0.3,0.6-0.7c0.4-0.3,1.2-0.7,2-0.7c0.8,0,1.6,0.2,2.1,0.6       C271.5,106.4,271.6,106.7,271.6,106.7z"></path>				</g>				<g>					<path class="st2" d="M246,108.6c0.1,0.1-2.1,1.7-4.7,3.8c-2.6,2-4.9,3.5-4.9,3.5c-0.1-0.1,2.1-1.7,4.7-3.8       S245.9,108.5,246,108.6z"></path>				</g>			</g>			<g class="st12">				<path d="M237.1,157.5c-1.1,10.2,2.8,20.9,11,27.2c0.7,0.5,1.5,1,2.2,0.7c0.5-0.2,0.8-0.7,1.2-1.2c2.3-4,3.1-8.5,2.5-13.1      c-1.3,3.4-2.4,6.8-3.7,10.3C243,177,238.6,167.8,237.1,157.5z"></path>			</g>			<path class="st16" d="M264.8,180.6l6-2.2l1,10.1c0,0,6.5-11.8,9.1-17.2c2.7-5.4,1.3-14.9,1.3-14.9s1,8.3-5.5,18.9l-4.9,8V175     L264.8,180.6z"></path>			<g class="st12">				<path d="M194.9,232.2c-2.6-1.2-5.8-1.4-8.7-1.1c-3.1,0.3-6.3,1.3-8.6,3.3c-2.5,2-4.1,5-3.8,8.2l0.3,0.1      c2.1-5.7,6.3-9.8,11.6-10.3c5.4-0.5,10.6,1.9,14.3,5.8C199.7,235.2,197.7,233.5,194.9,232.2z"></path>			</g>			<g class="st12">				<path d="M346.7,238c-2-2.1-4.9-3.5-7.7-4c-5.1-0.9-10.6,0.7-14.5,4.2l1.2-0.9c2.9-1.7,6.3-2.7,9.6-2.6c3.4,0.1,6.8,1.3,9.1,3.7      c2.2,2.1,3.6,5,4.9,7.8C349.9,243.2,348.7,240.2,346.7,238z"></path>			</g>			<g>				<path class="st2" d="M308,190.9c0,0,0.1-0.3,0.2-0.8c0.2-0.6,0.5-1.3,0.8-2.2c0.7-1.8,1.7-4.4,2.8-7.2c1.1-2.8,2-5.4,2.6-7.2      c0.3-0.9,0.6-1.6,0.7-2.2c0.2-0.5,0.3-0.8,0.3-0.8s-0.1,0.3-0.2,0.8c-0.2,0.6-0.3,1.3-0.7,2.2c-0.6,1.9-1.5,4.5-2.5,7.3      c-1.1,2.8-2.1,5.4-2.9,7.2c-0.4,0.9-0.7,1.6-1,2.1C308.2,190.6,308.1,190.9,308,190.9z"></path>			</g>			<g>				<path class="st2" d="M213.3,191.6c-0.1,0-0.9-3.5-1.8-8c-0.9-4.4-1.6-8.1-1.4-8.1c0.1,0,0.9,3.5,1.8,8S213.4,191.6,213.3,191.6z      "></path>			</g>			<g>				<g>					<path class="st13" d="M211.9,236.3c0.2,0.1-2.7-23.4-2.7-23.4s1.9-17.9,3-18.7v-6.3c0,0,2.9-1.7,3.7,1.1c0,0,2.6-2.2,3,3.1       c0.4,5.4,0.6,10.8,0.6,10.8l5.8,14.4l1,0.5c0,0,1.2-11.3,2-12.9c0.7-1.6,1.2-5.7,4-5.1c2.7,0.6,3,2.9,2.5,6.6       c-0.5,3.7-1.1,7.5-0.9,9.9c0.2,2.4,1.3,7.6,1,11.8c-0.3,4.2-2.6,8.6-5,11.6c-2.4,3-7,9.5-9.5,11.4       C219.3,251.6,211.9,236.3,211.9,236.3z"></path>					<g>						<path class="st14" d="M214.8,217.1c0,0,0-0.3,0-1c0.1-0.7,0.1-1.6,0.2-2.7c0.2-2.3,0.4-5.5,0.7-9c0.2-1.7,0.3-3.5,0.5-4.9        c0.1-0.7,0.1-1.5,0-2.1c-0.1-0.7-0.3-1.2-0.7-1.6c-0.7-0.8-1.7-1.1-2.4-1.1c-0.7,0-1,0.2-1,0.2s0.1-0.1,0.2-0.1        c0.2-0.1,0.4-0.2,0.7-0.2c0.7-0.1,1.7,0.1,2.6,1c0.4,0.4,0.7,1.1,0.8,1.7c0.1,0.7,0.1,1.5,0,2.2c-0.2,1.6-0.2,3.2-0.4,4.9        c-0.3,3.5-0.7,6.7-0.9,9c-0.2,1.1-0.2,2-0.3,2.7C214.9,216.8,214.9,217.1,214.8,217.1z"></path>					</g>					<g>						<path class="st14" d="M217.9,207.6c0.1,0.1-0.6,0.6-1,1.9c-0.5,1.2-0.7,3-1,5.1c-0.3,2-0.6,3.9-0.8,5.1        c-0.2,1.3-0.4,2.1-0.5,2.1c-0.1,0,0-0.8,0.2-2.1c0.2-1.3,0.4-3.1,0.7-5.2c0.3-2,0.6-3.9,1.1-5.1c0.2-0.7,0.6-1.1,0.8-1.4        C217.8,207.7,217.9,207.5,217.9,207.6z"></path>					</g>					<g>						<path class="st14" d="M215.8,188.7c0,0,0.1,0.2,0.2,0.7c0.1,0.5,0.2,1.2,0.4,2.1c0.2,1.7,0.6,4.1,0.8,6.8        c0.2,2.7,0.2,5.1,0.2,6.8c0,0.9,0,1.6-0.1,2.1c0,0.5-0.1,0.7-0.1,0.7c-0.1,0-0.1-1.1-0.1-2.9c-0.1-1.7-0.2-4.2-0.3-6.8        c-0.2-2.6-0.5-5.1-0.7-6.8C215.9,189.8,215.7,188.7,215.8,188.7z"></path>					</g>					<g>						<path class="st14" d="M232.4,210.8c0.1,0.1-0.8,0.5-2,0.2c-1.1-0.3-1.6-1.2-1.5-1.2c0.1-0.1,0.7,0.6,1.6,0.8        C231.6,210.9,232.4,210.6,232.4,210.8z"></path>					</g>					<path class="st13" d="M212.2,233.4l-15.2,6.4h-9.1c0,0-9,2.8-10.4,11.2c-1.4,8.4-1.6,12.8,2.4,13.8c4,1.1,15.1,1.2,20.6-0.7       c5.5-1.8,20-13.5,20-13.5l1.4-8.5L212.2,233.4z"></path>				</g>				<g>					<path class="st14" d="M215.8,242.7c0,0-0.2-0.1-0.4-0.4c-0.2-0.2-0.6-0.7-1-1.2c-0.7-1.2-1.6-2.8-2.1-4.8       c-0.6-2-0.8-3.9-0.9-5.2s-0.1-2.1-0.1-2.1c0.1,0,0.2,0.8,0.3,2.1s0.5,3.1,1.1,5.1c0.6,2,1.3,3.6,2,4.8       C215.3,242,215.9,242.7,215.8,242.7z"></path>				</g>			</g>			<g>				<path class="st14" d="M222.5,245.4c-0.1,0,0.6-1.2,0.9-3.3c0.2-1.1,0.1-2.3-0.2-3.6c-0.3-1.3-0.9-2.7-1.9-4      c-0.9-1.3-2-2.4-2.9-3.5c-0.9-1.1-1.6-2.1-2.1-3.1c-0.5-1-0.7-1.8-0.7-2.4c-0.1-0.6-0.1-0.9,0-0.9c0.1,0,0.1,1.3,1.1,3.2      c0.5,0.9,1.2,2,2.1,3c0.9,1.1,2,2.2,2.9,3.5c1,1.3,1.6,2.8,1.9,4.2c0.2,1.4,0.2,2.7,0.1,3.7c-0.2,1.1-0.5,1.9-0.7,2.4      c-0.1,0.2-0.2,0.5-0.3,0.6C222.5,245.3,222.5,245.4,222.5,245.4z"></path>			</g>			<g>				<g>					<path class="st15" d="M199,208.7c-0.1,0.1-1.7-3-3.7-6.8c-2-3.8-3.5-6.9-3.4-6.9c0.1-0.1,1.7,3,3.7,6.8       C197.6,205.5,199.1,208.6,199,208.7z"></path>				</g>				<g>					<path class="st15" d="M223.6,181.3c-0.1-0.1,0.9-2.6,2.3-5.6c1.4-3,2.6-5.5,2.6-5.4c0.1,0.1-0.9,2.6-2.3,5.6       C224.8,178.8,223.7,181.3,223.6,181.3z"></path>				</g>				<g>					<path class="st15" d="M247.7,199.1c-0.1,0.1-1.6-1.6-3.5-3.9c-1.8-2.2-3.2-4-3.1-4.1c0.1-0.1,1.6,1.6,3.5,3.9       C246.3,197.2,247.8,199,247.7,199.1z"></path>				</g>				<g>					<path class="st15" d="M242.1,223.6c-0.1-0.1,1.1-1.8,2.6-4c1.6-2.1,2.8-3.8,2.9-3.7c0.1,0.1-1.1,1.8-2.6,4       C243.5,222,242.2,223.6,242.1,223.6z"></path>				</g>				<g>					<path class="st15" d="M234.6,258.1c-0.1,0-0.4-0.6-0.9-1.5c-0.5-1-1.2-2.3-1.8-3.8c-0.7-1.5-1.2-2.9-1.5-4       c-0.3-1-0.5-1.6-0.5-1.6c0.1,0,0.3,0.6,0.7,1.6c0.5,1.2,1,2.5,1.6,3.9c0.7,1.4,1.2,2.7,1.6,3.9       C234.5,257.5,234.7,258.1,234.6,258.1z"></path>				</g>				<g>					<path class="st15" d="M255.9,243.4c0,0.1-2.1-0.2-4.5-0.7c-2.5-0.5-4.5-1-4.4-1.1c0-0.1,2.1,0.2,4.5,0.7       C253.9,242.8,255.9,243.3,255.9,243.4z"></path>				</g>				<g>					<path class="st15" d="M272.4,211.1c-0.1-0.1,1.9-2.3,4.4-4.9c2.5-2.7,4.5-4.8,4.6-4.7c0.1,0.1-1.9,2.3-4.4,4.9       C274.5,209.1,272.4,211.2,272.4,211.1z"></path>				</g>				<g>					<path class="st15" d="M288.9,254.2c-0.1,0.1-2.6-2.7-5.4-6.3c-2.9-3.5-5.2-6.4-5.1-6.5c0.1-0.1,2.6,2.7,5.4,6.3       C286.7,251.2,289,254.1,288.9,254.2z"></path>				</g>				<g>					<path class="st15" d="M186.1,235.8c0.1,0.1-2.1,1.2-4.6,3.1c-2.5,1.8-4.1,3.7-4.2,3.6c0,0,0.3-0.6,1-1.2c0.7-0.7,1.7-1.7,3-2.6       c1.2-0.9,2.4-1.6,3.3-2.1C185.6,236,186.1,235.8,186.1,235.8z"></path>				</g>				<g>					<path class="st15" d="M192.3,219.2c0.1,0.1-0.7,1.4-1.7,3c-1.1,1.6-2,2.9-2.1,2.8s0.7-1.4,1.7-3       C191.3,220.4,192.2,219.2,192.3,219.2z"></path>				</g>				<g>					<path class="st15" d="M206.3,235.5c-0.1,0.1-0.9-1.2-1.3-3c-0.4-1.8-0.2-3.4-0.2-3.3c0.1,0,0.2,1.5,0.6,3.2       C205.7,234.1,206.4,235.5,206.3,235.5z"></path>				</g>				<g>					<path class="st15" d="M208.4,183.8c0,0.1-1.3,0.4-2.9,0.6c-1.6,0.2-3,0.3-3,0.2c0-0.1,1.3-0.4,2.9-0.6       C207,183.8,208.3,183.6,208.4,183.8z"></path>				</g>				<g>					<path class="st15" d="M218.8,165.2c0.1,0.1-1.1,0.8-2.6,1.6s-2.6,1.4-2.7,1.3c-0.1-0.1,1.1-0.8,2.6-1.6       C217.5,165.7,218.7,165.1,218.8,165.2z"></path>				</g>				<g>					<path class="st15" d="M248.3,173c-0.1,0.1-1.4-1.5-2.9-3.5s-2.6-3.6-2.6-3.7c0.1-0.1,1.4,1.5,2.9,3.5       C247.2,171.3,248.4,173,248.3,173z"></path>				</g>				<g>					<path class="st15" d="M285.7,191.7c-0.1,0.1-1.4-1.3-2.7-3.4c-1.2-2.1-1.9-3.9-1.8-4c0.1-0.1,0.9,1.7,2.1,3.7       C284.6,190.1,285.8,191.6,285.7,191.7z"></path>				</g>				<g>					<path class="st15" d="M300,196.4c0.1,0.1-0.6,1.8-1.6,3.9c-1,2.1-1.8,3.8-1.9,3.7c-0.1-0.1,0.6-1.8,1.6-3.9       C299,198,299.9,196.4,300,196.4z"></path>				</g>				<g>					<path class="st15" d="M301.9,176.9c-0.1,0.1-1.8-1.8-3.8-4.3c-2-2.4-3.5-4.4-3.5-4.5c0.1-0.1,1.8,1.8,3.8,4.3       C300.4,174.8,302,176.9,301.9,176.9z"></path>				</g>				<g>					<path class="st15" d="M280.1,161.1c-0.1,0-0.2-1.6-0.3-3.6c-0.1-2-0.1-3.6,0.1-3.6c0.1,0,0.2,1.6,0.3,3.6       C280.3,159.5,280.3,161.1,280.1,161.1z"></path>				</g>				<g>					<path class="st15" d="M297.9,160.1c0,0.1-2.1,0.5-4.6,0.8c-2.6,0.3-4.7,0.6-4.7,0.4c0-0.1,2.1-0.5,4.6-0.8       C295.8,160.2,297.9,160,297.9,160.1z"></path>				</g>				<g>					<path class="st15" d="M325.9,180.6c-0.1,0.1-1.3-2.3-2.8-5.4c-1.5-3-2.6-5.4-2.5-5.5c0.1-0.1,1.3,2.3,2.8,5.4       C324.9,178.2,326,180.6,325.9,180.6z"></path>				</g>				<g>					<path class="st15" d="M321.2,198.4c-0.1,0,0.2-2,0.7-4.3c0.5-2.3,0.9-4.2,1.1-4.2c0.1,0-0.2,2-0.7,4.3       C321.8,196.6,321.3,198.4,321.2,198.4z"></path>				</g>				<g>					<path class="st15" d="M334.2,212.4c-0.1,0-1.1-2.6-2.2-5.8s-2-5.8-1.9-5.9c0.1,0,1.1,2.6,2.2,5.8       C333.5,209.8,334.3,212.4,334.2,212.4z"></path>				</g>				<g>					<path class="st15" d="M332.4,220.7c0,0.1-1.8-0.2-3.8-1.3s-3.3-2.4-3.2-2.5s1.5,1.1,3.4,2.1C330.7,220,332.4,220.5,332.4,220.7       z"></path>				</g>				<g>					<path class="st15" d="M349,239.4c-0.1,0.1-0.7-1.1-1.3-2.6c-0.7-1.5-1.1-2.6-1-2.7c0.1-0.1,0.7,1.1,1.3,2.6       C348.6,238,349.1,239.3,349,239.4z"></path>				</g>				<g>					<path class="st15" d="M250.8,265.4c-0.1,0-0.3-1.5-0.6-3.3c-0.2-1.8-0.3-3.4-0.2-3.4c0.1,0,0.3,1.5,0.6,3.3       C250.8,263.8,250.9,265.4,250.8,265.4z"></path>				</g>				<g>					<path class="st15" d="M301.8,264.1c-0.1,0,0.1-1.5,0.5-3.3s0.7-3.2,0.9-3.2c0.1,0-0.1,1.5-0.5,3.3       C302.3,262.7,301.9,264.2,301.8,264.1z"></path>				</g>			</g>		</g>		<g>			<g>				<g>					<g>						<g>							<g>								<g>									<g>										<g>											<path class="st17" d="M311.6,115.3l6.6-11.6c-2.9-4.8-4.6-10.3-4.6-16.3c0-17.2,13.9-31.1,31.1-31.1             c17.2,0,31.1,13.9,31.1,31.1s-13.9,31.1-31.1,31.1c-7.2,0-13.8-2.5-19-6.5l0,0L311.6,115.3z"></path>										</g>									</g>								</g>							</g>							<g>								<g>									<g>										<g>											<g>												<path class="st2" d="M311.6,115.3c0.7-0.2,5.1-1.2,14.1-3.2h0.2l-0.1-0.1l0,0l-0.2,0.2c1.8,1.4,3.9,2.7,6.4,3.9              c2.5,1.1,5.4,2,8.6,2.5c1.6,0.2,3.2,0.3,4.9,0.2c0.8-0.1,1.7-0.1,2.6-0.2c0.8-0.2,1.7-0.2,2.6-0.4              c3.5-0.7,7.2-2.1,10.5-4.1c3.4-2.1,6.5-4.9,9-8.4c2.5-3.5,4.4-7.6,5.3-12c0.9-4.4,0.8-9.2-0.3-13.8              c-1.2-4.6-3.4-9.1-6.7-12.8l-1.2-1.4c-0.4-0.5-0.9-0.8-1.4-1.3c-0.5-0.4-0.9-0.9-1.4-1.2l-1.5-1.2c-0.5-0.4-1-0.7-1.6-1              c-0.5-0.3-1.1-0.7-1.6-1c-0.6-0.2-1.1-0.6-1.6-0.8c-0.6-0.2-1.1-0.6-1.6-0.7c-4.5-1.8-9.3-2.5-13.9-2.1              c-4.6,0.3-9.1,1.6-12.8,3.8c-3.8,2.1-7,4.9-9.5,8.1c-2.5,3.1-4.2,6.6-5.3,10.1c-1.1,3.5-1.4,6.9-1.3,10.1              c0.1,3.2,0.7,6.2,1.6,8.7c0.8,2.6,2,4.9,3.1,6.7v-0.1C314,111.1,311.9,114.8,311.6,115.3c0.3-0.6,2.4-4.2,6.7-11.6v-0.1              v-0.1c-1.2-1.9-2.2-4.1-3-6.7c-0.8-2.6-1.4-5.5-1.5-8.6c0-3.1,0.3-6.6,1.4-10c1.1-3.5,2.8-6.8,5.3-10              c2.5-3.1,5.6-5.9,9.4-8c3.7-2.1,8.1-3.4,12.7-3.7c4.5-0.3,9.3,0.3,13.8,2.1c0.6,0.2,1.1,0.5,1.6,0.7              c0.6,0.2,1.1,0.5,1.6,0.8c0.5,0.3,1.1,0.7,1.6,1c0.5,0.3,1.1,0.7,1.6,1l1.5,1.1c0.5,0.3,0.9,0.8,1.4,1.2              c0.4,0.4,0.9,0.8,1.3,1.2l1.2,1.4c3.3,3.6,5.4,8.1,6.6,12.6c1.2,4.5,1.2,9.3,0.4,13.7c-0.9,4.4-2.7,8.5-5.2,11.9              c-2.5,3.5-5.5,6.3-8.8,8.3c-3.3,2.1-6.9,3.4-10.4,4.1c-0.9,0.2-1.7,0.2-2.6,0.4c-0.8,0.1-1.7,0.1-2.6,0.2              c-1.6,0.1-3.3,0-4.9-0.2c-3.1-0.4-6-1.3-8.5-2.4c-2.5-1.1-4.6-2.5-6.3-3.8l-0.6-0.4l0.4,0.6l0,0l0.1-0.2              C316.7,114.1,312.2,115.2,311.6,115.3z"></path>											</g>										</g>									</g>								</g>							</g>						</g>					</g>				</g>			</g>			<g>				<g>					<g>						<g>							<g>								<g>									<g>										<path class="st2" d="M353.1,86.1c0,1.6,1.4,3,3,3s3-1.4,3-3s-1.4-3-3-3S353.1,84.4,353.1,86.1z"></path>									</g>								</g>							</g>						</g>					</g>				</g>				<g>					<g>						<g>							<g>								<g>									<g>										<path class="st2" d="M340.9,86.1c0,1.6,1.4,3,3,3c1.6,0,3-1.4,3-3s-1.4-3-3-3C342.3,83,340.9,84.4,340.9,86.1z"></path>									</g>								</g>							</g>						</g>					</g>				</g>				<g>					<g>						<g>							<g>								<g>									<g>										<path class="st2" d="M328.8,84.6c-0.8,1.5-0.3,3.3,1.2,4.1c1.5,0.8,3.3,0.3,4.1-1.2c0.8-1.5,0.3-3.3-1.2-4.1            C331.5,82.6,329.6,83.1,328.8,84.6z"></path>									</g>								</g>							</g>						</g>					</g>				</g>			</g>		</g>	</g></g></svg>